<?xml version="1.0" encoding="UTF-8"?>
<!DOCTYPE svg PUBLIC "-//W3C//DTD SVG 1.1//EN" "http://www.w3.org/Graphics/SVG/1.1/DTD/svg11.dtd">
<svg version="1.2" width="178.8mm" height="137.5mm" viewBox="0 0 17880 13750" preserveAspectRatio="xMidYMid" fill-rule="evenodd" stroke-width="28.222" stroke-linejoin="round" xmlns="http://www.w3.org/2000/svg" xmlns:ooo="http://xml.openoffice.org/svg/export" xmlns:xlink="http://www.w3.org/1999/xlink" xmlns:presentation="http://sun.com/xmlns/staroffice/presentation" xmlns:smil="http://www.w3.org/2001/SMIL20/" xmlns:anim="urn:oasis:names:tc:opendocument:xmlns:animation:1.0" xml:space="preserve">
 <defs class="ClipPathGroup">
  <clipPath id="presentation_clip_path" clipPathUnits="userSpaceOnUse">
   <rect x="0" y="0" width="17880" height="13750"/>
  </clipPath>
  <clipPath id="presentation_clip_path_shrink" clipPathUnits="userSpaceOnUse">
   <rect x="17" y="13" width="17845" height="13723"/>
  </clipPath>
 </defs>
 <defs class="TextShapeIndex">
  <g ooo:slide="id1" ooo:id-list="id3 id4 id5 id6 id7 id8 id9 id10 id11 id12 id13 id14 id15 id16 id17 id18 id19 id20 id21 id22 id23 id24 id25 id26 id27 id28 id29 id30"/>
 </defs>
 <defs class="EmbeddedBulletChars">
  <g id="bullet-char-template-57356" transform="scale(0.00048828125,-0.00048828125)">
   <path d="M 580,1141 L 1163,571 580,0 -4,571 580,1141 Z"/>
  </g>
  <g id="bullet-char-template-57354" transform="scale(0.00048828125,-0.00048828125)">
   <path d="M 8,1128 L 1137,1128 1137,0 8,0 8,1128 Z"/>
  </g>
  <g id="bullet-char-template-10146" transform="scale(0.00048828125,-0.00048828125)">
   <path d="M 174,0 L 602,739 174,1481 1456,739 174,0 Z M 1358,739 L 309,1346 659,739 1358,739 Z"/>
  </g>
  <g id="bullet-char-template-10132" transform="scale(0.00048828125,-0.00048828125)">
   <path d="M 2015,739 L 1276,0 717,0 1260,543 174,543 174,936 1260,936 717,1481 1274,1481 2015,739 Z"/>
  </g>
  <g id="bullet-char-template-10007" transform="scale(0.00048828125,-0.00048828125)">
   <path d="M 0,-2 C -7,14 -16,27 -25,37 L 356,567 C 262,823 215,952 215,954 215,979 228,992 255,992 264,992 276,990 289,987 310,991 331,999 354,1012 L 381,999 492,748 772,1049 836,1024 860,1049 C 881,1039 901,1025 922,1006 886,937 835,863 770,784 769,783 710,716 594,584 L 774,223 C 774,196 753,168 711,139 L 727,119 C 717,90 699,76 672,76 641,76 570,178 457,381 L 164,-76 C 142,-110 111,-127 72,-127 30,-127 9,-110 8,-76 1,-67 -2,-52 -2,-32 -2,-23 -1,-13 0,-2 Z"/>
  </g>
  <g id="bullet-char-template-10004" transform="scale(0.00048828125,-0.00048828125)">
   <path d="M 285,-33 C 182,-33 111,30 74,156 52,228 41,333 41,471 41,549 55,616 82,672 116,743 169,778 240,778 293,778 328,747 346,684 L 369,508 C 377,444 397,411 428,410 L 1163,1116 C 1174,1127 1196,1133 1229,1133 1271,1133 1292,1118 1292,1087 L 1292,965 C 1292,929 1282,901 1262,881 L 442,47 C 390,-6 338,-33 285,-33 Z"/>
  </g>
  <g id="bullet-char-template-9679" transform="scale(0.00048828125,-0.00048828125)">
   <path d="M 813,0 C 632,0 489,54 383,161 276,268 223,411 223,592 223,773 276,916 383,1023 489,1130 632,1184 813,1184 992,1184 1136,1130 1245,1023 1353,916 1407,772 1407,592 1407,412 1353,268 1245,161 1136,54 992,0 813,0 Z"/>
  </g>
  <g id="bullet-char-template-8226" transform="scale(0.00048828125,-0.00048828125)">
   <path d="M 346,457 C 273,457 209,483 155,535 101,586 74,649 74,723 74,796 101,859 155,911 209,963 273,989 346,989 419,989 480,963 531,910 582,859 608,796 608,723 608,648 583,586 532,535 482,483 420,457 346,457 Z"/>
  </g>
  <g id="bullet-char-template-8211" transform="scale(0.00048828125,-0.00048828125)">
   <path d="M -4,459 L 1135,459 1135,606 -4,606 -4,459 Z"/>
  </g>
  <g id="bullet-char-template-61548" transform="scale(0.00048828125,-0.00048828125)">
   <path d="M 173,740 C 173,903 231,1043 346,1159 462,1274 601,1332 765,1332 928,1332 1067,1274 1183,1159 1299,1043 1357,903 1357,740 1357,577 1299,437 1183,322 1067,206 928,148 765,148 601,148 462,206 346,322 231,437 173,577 173,740 Z"/>
  </g>
 </defs>
 <g>
  <g id="id2" class="Master_Slide">
   <g id="bg-id2" class="Background"/>
   <g id="bo-id2" class="BackgroundObjects"/>
  </g>
 </g>
 <g class="SlideGroup">
  <g>
   <g id="container-id1">
    <g id="id1" class="Slide" clip-path="url(#presentation_clip_path)">
     <g class="Page">
      <g class="Group">
       <g class="com.sun.star.drawing.PolyPolygonShape">
        <g id="id3">
         <rect class="BoundingBox" stroke="none" fill="none" x="-1" y="-1" width="17885" height="13751"/>
         <path fill="rgb(255,255,255)" stroke="none" d="M 17783,6180 L 17806,6259 17826,6339 17843,6420 17857,6501 17868,6582 17876,6664 17881,6746 17882,6828 17878,6958 17867,7088 17848,7218 17821,7347 17789,7472 17749,7595 17701,7717 17647,7837 17590,7950 17526,8061 17456,8170 17379,8276 17297,8379 17208,8480 17113,8577 17012,8671 16958,8712 16807,8825 16268,9226 14597,10468 11730,12608 11717,12617 11685,12638 11571,12711 11206,12938 10768,13199 10563,13312 10389,13399 10214,13476 10040,13543 9865,13601 9690,13650 9501,13692 9311,13723 9215,13734 9119,13742 9022,13747 8925,13748 8771,13744 8616,13733 8458,13712 8298,13684 8134,13646 7968,13599 7797,13543 7624,13476 7469,13410 7311,13336 7149,13252 6983,13160 6636,12946 6271,12692 6270,12692 734,8431 685,8391 638,8350 593,8308 550,8265 470,8177 397,8086 361,8038 328,7990 266,7891 212,7790 164,7687 124,7589 91,7489 62,7388 40,7287 22,7185 10,7084 2,6983 0,6882 2,6779 10,6677 22,6577 38,6479 58,6383 81,6290 109,6201 139,6115 177,6023 218,5936 261,5854 307,5777 369,5686 401,5644 433,5604 466,5565 500,5529 534,5495 568,5464 1594,4469 1587,4447 1580,4426 1569,4385 1543,4289 1520,4194 1502,4097 1486,4000 1474,3903 1466,3805 1461,3708 1459,3610 1463,3464 1474,3319 1492,3175 1517,3031 1549,2889 1588,2748 1633,2609 1685,2472 1742,2339 1804,2210 1872,2083 1946,1959 2026,1839 2110,1723 2200,1610 2295,1502 2397,1395 2503,1294 2614,1197 2729,1106 2848,1021 2972,942 3099,869 3230,802 3369,740 3511,686 3656,639 3805,601 3958,569 4113,546 4272,532 4433,528 4577,532 4724,543 4872,562 5021,590 5172,626 5325,671 5478,726 5633,790 5763,850 5893,918 6024,993 6156,1076 6443,863 6727,678 7006,518 7281,382 7496,289 7710,210 7922,145 8132,93 8345,51 8554,22 8761,5 8964,0 9091,2 9217,8 9342,19 9466,34 9588,52 9710,75 9948,130 10174,197 10395,276 10612,368 10824,471 11047,592 11263,726 11473,869 11676,1021 11819,931 11961,850 12103,778 12244,713 12403,649 12561,595 12717,549 12872,513 13026,485 13177,466 13327,455 13474,451 13628,455 13779,467 13928,487 14074,515 14218,550 14358,592 14495,640 14628,696 14757,758 14881,826 15002,899 15119,979 15232,1064 15340,1154 15444,1249 15543,1350 15636,1453 15725,1561 15808,1672 15886,1788 15959,1907 16026,2030 16088,2156 16144,2285 16194,2417 16238,2552 16275,2689 16306,2828 16330,2970 16348,3113 16359,3257 16362,3403 16360,3511 16354,3620 16344,3730 16329,3839 16311,3949 16287,4060 16260,4170 16228,4281 16204,4356 16192,4393 16178,4431 16235,4476 16338,4562 16626,4809 17143,5256 17184,5293 17228,5338 17323,5446 17421,5571 17517,5706 17607,5843 17685,5972 17746,6087 17767,6137 17783,6180 Z"/>
        </g>
       </g>
       <g class="com.sun.star.drawing.PolyPolygonShape">
        <g id="id4">
         <rect class="BoundingBox" stroke="none" fill="none" x="-10" y="-10" width="17903" height="13769"/>
         <path fill="none" stroke="rgb(128,128,128)" stroke-width="18" stroke-linejoin="round" d="M 17783,6180 L 17806,6259 17826,6339 17843,6420 17857,6501 17868,6582 17876,6664 17881,6746 17882,6828 17878,6958 17867,7088 17848,7218 17821,7347 17789,7472 17749,7595 17701,7717 17647,7837 17590,7950 17526,8061 17456,8170 17379,8276 17297,8379 17208,8480 17113,8577 17012,8671 16958,8712 16807,8825 16268,9226 14597,10468 11730,12608 11717,12617 11685,12638 11571,12711 11206,12938 10768,13199 10563,13312 10389,13399 10214,13476 10040,13543 9865,13601 9690,13650 9501,13692 9311,13723 9215,13734 9119,13742 9022,13747 8925,13748 8771,13744 8616,13733 8458,13712 8298,13684 8134,13646 7968,13599 7797,13543 7624,13476 7469,13410 7311,13336 7149,13252 6983,13160 6636,12946 6271,12692 6270,12692 734,8431 685,8391 638,8350 593,8308 550,8265 470,8177 397,8086 361,8038 328,7990 266,7891 212,7790 164,7687 124,7589 91,7489 62,7388 40,7287 22,7185 10,7084 2,6983 0,6882 2,6779 10,6677 22,6577 38,6479 58,6383 81,6290 109,6201 139,6115 177,6023 218,5936 261,5854 307,5777 369,5686 401,5644 433,5604 466,5565 500,5529 534,5495 568,5464 1594,4469 1587,4447 1580,4426 1569,4385 1543,4289 1520,4194 1502,4097 1486,4000 1474,3903 1466,3805 1461,3708 1459,3610 1463,3464 1474,3319 1492,3175 1517,3031 1549,2889 1588,2748 1633,2609 1685,2472 1742,2339 1804,2210 1872,2083 1946,1959 2026,1839 2110,1723 2200,1610 2295,1502 2397,1395 2503,1294 2614,1197 2729,1106 2848,1021 2972,942 3099,869 3230,802 3369,740 3511,686 3656,639 3805,601 3958,569 4113,546 4272,532 4433,528 4577,532 4724,543 4872,562 5021,590 5172,626 5325,671 5478,726 5633,790 5763,850 5893,918 6024,993 6156,1076 6443,863 6727,678 7006,518 7281,382 7496,289 7710,210 7922,145 8132,93 8345,51 8554,22 8761,5 8964,0 9091,2 9217,8 9342,19 9466,34 9588,52 9710,75 9948,130 10174,197 10395,276 10612,368 10824,471 11047,592 11263,726 11473,869 11676,1021 11819,931 11961,850 12103,778 12244,713 12403,649 12561,595 12717,549 12872,513 13026,485 13177,466 13327,455 13474,451 13628,455 13779,467 13928,487 14074,515 14218,550 14358,592 14495,640 14628,696 14757,758 14881,826 15002,899 15119,979 15232,1064 15340,1154 15444,1249 15543,1350 15636,1453 15725,1561 15808,1672 15886,1788 15959,1907 16026,2030 16088,2156 16144,2285 16194,2417 16238,2552 16275,2689 16306,2828 16330,2970 16348,3113 16359,3257 16362,3403 16360,3511 16354,3620 16344,3730 16329,3839 16311,3949 16287,4060 16260,4170 16228,4281 16204,4356 16192,4393 16178,4431 16235,4476 16338,4562 16626,4809 17143,5256 17184,5293 17228,5338 17323,5446 17421,5571 17517,5706 17607,5843 17685,5972 17746,6087 17767,6137 17783,6180 Z"/>
        </g>
       </g>
       <g class="com.sun.star.drawing.PolyPolygonShape">
        <g id="id5">
         <rect class="BoundingBox" stroke="none" fill="none" x="629" y="624" width="16630" height="12495"/>
         <path fill="rgb(224,132,0)" stroke="none" d="M 11337,12116 L 11143,12237 10900,12375 10348,12667 9842,12915 9655,12997 9587,13024 9539,13039 9388,13073 9236,13097 9159,13106 9082,13112 9005,13116 8928,13117 8802,13114 8675,13104 8546,13087 8414,13064 8281,13032 8145,12994 8006,12947 7864,12892 7724,12832 7582,12765 7436,12689 7286,12605 6974,12411 6644,12182 1130,7939 1096,7912 1064,7884 1033,7855 1004,7826 948,7766 898,7703 875,7672 852,7639 811,7573 775,7506 743,7437 716,7369 692,7300 673,7230 657,7160 645,7089 637,7019 632,6949 630,6879 632,6806 637,6734 645,6663 657,6594 671,6526 689,6460 708,6396 730,6335 754,6273 781,6215 810,6161 841,6110 858,6082 876,6057 895,6032 913,6009 932,5987 952,5966 991,5928 1204,5726 1547,5393 2340,4617 2290,4517 2246,4415 2207,4312 2174,4208 2154,4134 2137,4059 2123,3984 2111,3910 2102,3834 2096,3759 2092,3683 2091,3608 2094,3492 2103,3377 2117,3262 2137,3148 2162,3035 2193,2923 2230,2812 2271,2704 2316,2597 2367,2493 2422,2391 2481,2291 2545,2194 2614,2100 2686,2009 2762,1922 2842,1837 2926,1756 3014,1680 3106,1608 3201,1540 3299,1478 3400,1420 3504,1367 3612,1318 3722,1276 3835,1239 3951,1209 4069,1185 4189,1167 4311,1156 4436,1153 4550,1156 4665,1165 4782,1181 4900,1203 5019,1232 5139,1268 5259,1310 5381,1361 5480,1407 5579,1458 5679,1515 5779,1577 5878,1644 5978,1716 6079,1794 6179,1878 6355,1723 6529,1581 6702,1449 6874,1329 7044,1219 7212,1119 7379,1030 7544,950 7729,871 7912,804 8092,748 8271,703 8448,668 8624,644 8797,629 8967,625 9074,627 9179,632 9283,641 9386,653 9489,668 9590,686 9789,733 9983,791 10172,859 10358,938 10539,1026 10690,1108 10838,1195 10982,1288 11123,1386 11396,1594 11655,1818 11761,1732 11867,1651 11972,1577 12078,1508 12183,1445 12288,1387 12392,1334 12496,1287 12623,1235 12748,1192 12873,1155 12997,1126 13119,1103 13240,1087 13360,1078 13477,1075 13597,1078 13715,1088 13831,1103 13944,1125 14055,1152 14164,1185 14270,1224 14373,1267 14474,1315 14571,1367 14666,1425 14757,1487 14846,1554 14930,1624 15012,1699 15089,1778 15163,1859 15233,1944 15299,2032 15360,2124 15418,2218 15471,2315 15519,2415 15563,2517 15603,2621 15637,2728 15667,2836 15691,2946 15710,3058 15724,3171 15732,3285 15735,3400 15734,3485 15729,3572 15721,3658 15710,3745 15695,3832 15677,3919 15656,4006 15630,4093 15585,4226 15532,4358 15470,4489 15399,4620 15479,4685 15655,4825 16168,5237 16691,5668 16878,5834 16939,5894 16960,5917 16974,5935 17009,5986 17041,6038 17071,6091 17098,6145 17124,6199 17147,6254 17168,6309 17186,6365 17203,6421 17217,6478 17230,6535 17240,6593 17247,6651 17253,6709 17256,6768 17257,6827 17254,6920 17246,7013 17232,7107 17213,7200 17188,7292 17158,7383 17124,7473 17084,7562 17040,7648 16991,7733 16937,7816 16878,7898 16815,7977 16747,8054 16675,8129 16598,8200 16593,8205 16591,8206 16590,8207 16589,8208 16587,8208 11352,12106 11349,12109 11345,12111 11337,12116 Z"/>
        </g>
       </g>
       <g class="com.sun.star.drawing.PolyPolygonShape">
        <g id="id6">
         <rect class="BoundingBox" stroke="none" fill="none" x="1128" y="7938" width="5" height="5"/>
         <path fill="rgb(229,223,217)" stroke="none" d="M 1132,7941 L 1130,7939 1129,7938 1132,7941 Z"/>
        </g>
       </g>
       <g class="com.sun.star.drawing.PolyPolygonShape">
        <g id="id7">
         <rect class="BoundingBox" stroke="none" fill="none" x="13930" y="5677" width="1866" height="303"/>
         <path fill="rgb(39,24,8)" stroke="none" d="M 14862,5979 L 13930,5979 13930,5678 15794,5678 15794,5979 14862,5979 Z"/>
        </g>
       </g>
       <g class="com.sun.star.drawing.PolyPolygonShape">
        <g id="id8">
         <rect class="BoundingBox" stroke="none" fill="none" x="2255" y="7907" width="2255" height="302"/>
         <path fill="rgb(39,24,8)" stroke="none" d="M 3383,8207 L 2256,8207 2256,7907 4509,7907 4509,8207 3383,8207 Z"/>
        </g>
       </g>
       <g class="com.sun.star.drawing.PolyPolygonShape">
        <g id="id9">
         <rect class="BoundingBox" stroke="none" fill="none" x="7865" y="10112" width="640" height="640"/>
         <path fill="rgb(39,24,8)" stroke="none" d="M 8220,10314 L 8219,10307 8219,10299 8218,10292 8216,10285 8214,10277 8212,10270 8208,10263 8205,10256 8200,10249 8195,10243 8190,10237 8185,10231 8179,10226 8173,10222 8166,10217 8160,10213 8153,10210 8146,10207 8139,10204 8132,10202 8125,10200 8117,10198 8109,10198 8102,10197 8094,10198 8086,10198 8079,10200 8071,10202 8064,10204 8057,10207 8050,10210 8044,10213 8037,10217 8030,10222 8024,10226 8019,10231 8014,10237 8009,10243 8004,10249 8001,10256 7997,10263 7993,10270 7990,10277 7988,10285 7986,10292 7985,10299 7984,10307 7984,10314 7984,10322 7985,10330 7986,10338 7988,10345 7990,10353 7993,10360 7997,10367 8001,10374 8004,10381 8009,10387 8014,10393 8019,10398 8024,10404 8030,10409 8037,10413 8044,10417 8050,10421 8057,10424 8064,10426 8071,10429 8079,10430 8086,10431 8094,10432 8102,10432 8109,10432 8117,10431 8125,10430 8132,10429 8139,10426 8146,10424 8153,10421 8160,10417 8166,10413 8173,10409 8179,10404 8185,10398 8190,10393 8195,10387 8200,10381 8205,10374 8208,10367 8212,10360 8214,10353 8216,10345 8218,10338 8219,10330 8219,10322 8220,10314 Z M 8504,10431 L 8503,10453 8501,10473 8497,10494 8493,10514 8486,10534 8479,10553 8470,10572 8461,10590 8450,10608 8438,10625 8424,10642 8410,10657 8395,10671 8378,10685 8361,10697 8344,10707 8325,10717 8306,10726 8287,10733 8267,10739 8247,10744 8227,10748 8206,10750 8185,10750 8164,10750 8143,10748 8122,10744 8102,10739 8082,10733 8062,10726 8043,10717 8025,10707 8007,10697 7990,10685 7974,10671 7959,10657 7945,10642 7931,10625 7919,10608 7908,10590 7898,10572 7889,10553 7882,10534 7876,10514 7871,10494 7868,10473 7866,10453 7866,10431 7866,10410 7868,10390 7871,10369 7876,10349 7882,10329 7889,10309 7898,10290 7908,10271 7919,10254 7931,10237 7945,10221 7959,10206 7974,10192 7990,10179 8007,10166 8025,10155 8043,10145 8062,10136 8082,10129 8102,10123 8122,10118 8143,10115 8164,10113 8185,10112 8206,10113 8227,10115 8247,10118 8267,10123 8287,10129 8306,10136 8325,10145 8344,10155 8361,10166 8378,10179 8395,10192 8410,10206 8424,10221 8438,10237 8450,10254 8461,10271 8470,10290 8479,10309 8486,10329 8493,10349 8497,10369 8501,10390 8503,10410 8504,10431 Z"/>
        </g>
       </g>
       <g class="com.sun.star.drawing.PolyPolygonShape">
        <g id="id10">
         <rect class="BoundingBox" stroke="none" fill="none" x="8762" y="10112" width="638" height="640"/>
         <path fill="rgb(39,24,8)" stroke="none" d="M 9115,10314 L 9115,10307 9115,10299 9114,10292 9112,10285 9110,10277 9107,10270 9104,10263 9099,10256 9095,10249 9091,10243 9086,10237 9080,10231 9075,10226 9069,10222 9062,10217 9055,10213 9049,10210 9042,10207 9035,10204 9028,10202 9021,10200 9013,10198 9005,10198 8997,10197 8990,10198 8982,10198 8975,10200 8967,10202 8960,10204 8953,10207 8947,10210 8941,10213 8934,10217 8927,10222 8921,10226 8916,10231 8910,10237 8906,10243 8901,10249 8898,10256 8893,10263 8890,10270 8887,10277 8885,10285 8883,10292 8881,10299 8881,10307 8881,10314 8881,10322 8881,10330 8883,10338 8885,10345 8887,10353 8890,10360 8893,10367 8898,10374 8901,10381 8906,10387 8910,10393 8916,10398 8921,10404 8927,10409 8934,10413 8941,10417 8947,10421 8953,10424 8960,10426 8967,10429 8975,10430 8982,10431 8990,10432 8997,10432 9005,10432 9013,10431 9021,10430 9028,10429 9035,10426 9042,10424 9049,10421 9055,10417 9062,10413 9069,10409 9075,10404 9080,10398 9086,10393 9091,10387 9095,10381 9099,10374 9104,10367 9107,10360 9110,10353 9112,10345 9114,10338 9115,10330 9115,10322 9115,10314 Z M 9398,10431 L 9398,10453 9396,10473 9393,10494 9388,10514 9382,10534 9375,10553 9366,10572 9356,10590 9346,10608 9334,10625 9320,10642 9306,10657 9290,10671 9274,10685 9257,10697 9239,10707 9221,10717 9202,10726 9183,10733 9163,10739 9143,10744 9122,10748 9101,10750 9080,10750 9060,10750 9039,10748 9018,10744 8998,10739 8978,10733 8958,10726 8940,10717 8922,10707 8904,10697 8887,10685 8871,10671 8856,10657 8842,10642 8828,10625 8816,10608 8805,10590 8795,10572 8786,10553 8779,10534 8773,10514 8768,10494 8765,10473 8763,10453 8763,10431 8763,10410 8765,10390 8768,10369 8773,10349 8779,10329 8786,10309 8795,10290 8805,10271 8816,10254 8828,10237 8842,10221 8856,10206 8871,10192 8887,10179 8904,10166 8922,10155 8940,10145 8958,10136 8978,10129 8998,10123 9018,10118 9039,10115 9060,10113 9080,10112 9101,10113 9122,10115 9143,10118 9163,10123 9183,10129 9202,10136 9221,10145 9239,10155 9257,10166 9274,10179 9290,10192 9306,10206 9320,10221 9334,10237 9346,10254 9356,10271 9366,10290 9375,10309 9382,10329 9388,10349 9393,10369 9396,10390 9398,10410 9398,10431 Z"/>
        </g>
       </g>
       <g class="com.sun.star.drawing.PolyPolygonShape">
        <g id="id11">
         <rect class="BoundingBox" stroke="none" fill="none" x="9660" y="10112" width="640" height="640"/>
         <path fill="rgb(39,24,8)" stroke="none" d="M 10015,10314 L 10015,10307 10015,10299 10014,10292 10012,10285 10010,10277 10007,10270 10004,10263 9999,10256 9995,10249 9991,10243 9986,10237 9980,10231 9975,10226 9969,10222 9962,10217 9955,10213 9949,10210 9942,10207 9935,10204 9928,10202 9921,10200 9913,10198 9905,10198 9897,10197 9890,10198 9882,10198 9874,10200 9867,10202 9859,10204 9852,10207 9845,10210 9838,10213 9832,10217 9826,10222 9820,10226 9814,10231 9809,10237 9805,10243 9800,10249 9796,10256 9792,10263 9789,10270 9786,10277 9783,10285 9782,10292 9780,10299 9780,10307 9779,10314 9780,10322 9780,10330 9782,10338 9783,10345 9786,10353 9789,10360 9792,10367 9796,10374 9800,10381 9805,10387 9809,10393 9814,10398 9820,10404 9826,10409 9832,10413 9838,10417 9845,10421 9852,10424 9859,10426 9867,10429 9874,10430 9882,10431 9890,10432 9897,10432 9905,10432 9913,10431 9921,10430 9928,10429 9935,10426 9942,10424 9949,10421 9955,10417 9962,10413 9969,10409 9975,10404 9980,10398 9986,10393 9991,10387 9995,10381 9999,10374 10004,10367 10007,10360 10010,10353 10012,10345 10014,10338 10015,10330 10015,10322 10015,10314 Z M 10298,10431 L 10298,10453 10296,10473 10292,10494 10288,10514 10282,10534 10274,10553 10266,10572 10255,10590 10245,10608 10233,10625 10220,10642 10205,10657 10190,10671 10174,10685 10157,10697 10139,10707 10121,10717 10102,10726 10082,10733 10062,10739 10042,10744 10022,10748 10001,10750 9979,10750 9959,10750 9938,10748 9918,10744 9897,10739 9877,10733 9858,10726 9839,10717 9820,10707 9803,10697 9786,10685 9770,10671 9754,10657 9740,10642 9727,10625 9715,10608 9703,10590 9694,10572 9685,10553 9678,10534 9671,10514 9667,10494 9663,10473 9661,10453 9660,10431 9661,10410 9663,10390 9667,10369 9671,10349 9678,10329 9685,10309 9694,10290 9703,10271 9715,10254 9727,10237 9740,10221 9754,10206 9770,10192 9786,10179 9803,10166 9820,10155 9839,10145 9858,10136 9877,10129 9897,10123 9918,10118 9938,10115 9959,10113 9979,10112 10001,10113 10022,10115 10042,10118 10062,10123 10082,10129 10102,10136 10121,10145 10139,10155 10157,10166 10174,10179 10190,10192 10205,10206 10220,10221 10233,10237 10245,10254 10255,10271 10266,10290 10274,10309 10282,10329 10288,10349 10292,10369 10296,10390 10298,10410 10298,10431 Z"/>
        </g>
       </g>
       <g class="com.sun.star.drawing.PolyPolygonShape">
        <g id="id12">
         <rect class="BoundingBox" stroke="none" fill="none" x="6285" y="3814" width="707" height="724"/>
         <path fill="rgb(39,24,8)" stroke="none" d="M 6304,4191 L 6302,4189 6300,4188 6299,4186 6298,4185 6295,4181 6293,4178 6291,4174 6289,4169 6288,4165 6287,4161 6286,4159 6286,4157 6285,4152 6285,4148 6285,4144 6286,4140 6286,4135 6288,4127 6289,4123 6290,4119 6292,4115 6294,4112 6297,4108 6299,4105 6302,4102 6305,4099 6312,4093 6315,4091 6319,4089 6323,4086 6327,4085 6331,4083 6335,4082 6339,4081 6343,4080 6348,4080 6352,4080 6356,4080 6361,4081 6365,4082 6370,4083 6374,4084 6378,4085 6381,4087 6385,4089 6389,4092 6392,4094 6395,4097 6398,4100 6664,4378 6730,4310 6731,4308 6732,4306 6736,4303 6739,4301 6742,4298 6746,4296 6750,4294 6754,4292 6758,4291 6762,4290 6767,4289 6771,4289 6776,4288 6780,4289 6785,4289 6789,4290 6794,4291 6795,4291 6797,4291 6799,4292 6801,4292 6803,4293 6805,4294 6808,4296 6812,4298 6815,4300 6819,4303 6822,4307 6825,4310 6828,4313 6831,4316 6833,4320 6836,4323 6838,4327 6839,4331 6841,4335 6842,4339 6842,4343 6843,4348 6843,4352 6843,4356 6843,4360 6842,4364 6842,4369 6840,4373 6839,4377 6837,4381 6835,4384 6833,4388 6831,4391 6828,4394 6825,4398 6714,4517 6713,4518 6712,4518 6710,4520 6708,4521 6706,4523 6702,4525 6700,4527 6698,4529 6694,4530 6690,4532 6686,4533 6682,4534 6678,4535 6674,4536 6670,4536 6666,4537 6661,4536 6657,4536 6653,4535 6648,4534 6644,4533 6640,4532 6636,4530 6633,4529 6630,4527 6628,4525 6625,4523 6622,4521 6619,4519 6304,4191 Z M 6973,4161 L 6975,4164 6978,4168 6980,4171 6982,4175 6984,4179 6986,4183 6987,4187 6989,4191 6990,4195 6990,4199 6991,4204 6991,4208 6991,4212 6990,4217 6990,4221 6989,4226 6987,4230 6986,4234 6984,4237 6981,4241 6979,4245 6976,4248 6973,4251 6970,4254 6967,4256 6964,4259 6960,4261 6956,4264 6953,4266 6948,4268 6944,4269 6940,4271 6932,4271 6928,4271 6924,4271 6920,4271 6916,4271 6912,4270 6908,4270 6903,4268 6899,4267 6895,4265 6891,4263 6887,4260 6884,4258 6881,4255 6878,4253 6612,3976 6546,4045 6543,4047 6539,4050 6536,4052 6532,4054 6529,4056 6525,4058 6521,4060 6518,4062 6513,4063 6509,4063 6504,4064 6500,4064 6496,4064 6491,4063 6487,4063 6483,4062 6479,4061 6475,4060 6471,4058 6467,4057 6464,4055 6460,4053 6457,4050 6455,4048 6451,4044 6448,4041 6445,4037 6443,4033 6441,4030 6439,4026 6437,4022 6436,4018 6434,4009 6434,4004 6433,4000 6433,3996 6433,3991 6434,3987 6435,3983 6436,3979 6437,3975 6439,3972 6441,3968 6444,3964 6446,3960 6449,3957 6452,3954 6563,3837 6563,3836 6564,3835 6566,3833 6568,3831 6570,3829 6574,3827 6579,3824 6582,3822 6586,3820 6590,3818 6594,3817 6598,3816 6602,3815 6606,3815 6610,3815 6614,3815 6619,3815 6623,3816 6627,3817 6632,3818 6636,3820 6640,3822 6644,3824 6646,3825 6648,3826 6650,3827 6651,3829 6659,3835 6973,4161 Z"/>
        </g>
       </g>
       <g class="com.sun.star.drawing.PolyPolygonShape">
        <g id="id13">
         <rect class="BoundingBox" stroke="none" fill="none" x="7112" y="3391" width="410" height="712"/>
         <path fill="rgb(39,24,8)" stroke="none" d="M 7267,4033 L 7267,4037 7267,4042 7266,4046 7265,4050 7264,4055 7263,4059 7261,4063 7259,4067 7257,4071 7254,4074 7252,4078 7249,4082 7246,4085 7243,4088 7240,4090 7237,4093 7233,4094 7229,4096 7225,4097 7221,4098 7217,4099 7213,4100 7208,4101 7204,4102 7199,4102 7195,4101 7191,4100 7186,4100 7183,4099 7179,4097 7175,4096 7172,4095 7168,4093 7164,4090 7161,4088 7158,4085 7154,4082 7152,4078 7149,4075 7147,4072 7144,4068 7142,4063 7140,4059 7139,4055 7138,4051 7137,4046 7136,4042 7136,4038 7113,3459 7112,3457 7112,3455 7113,3450 7113,3446 7114,3442 7116,3438 7117,3434 7119,3430 7121,3427 7123,3423 7125,3419 7127,3416 7130,3413 7133,3410 7136,3407 7139,3404 7143,3402 7146,3400 7150,3398 7154,3396 7158,3394 7163,3393 7167,3392 7171,3392 7176,3392 7180,3391 7184,3392 7189,3392 7193,3393 7197,3394 7199,3395 7200,3395 7202,3396 7204,3397 7206,3398 7208,3400 7211,3402 7215,3404 7218,3407 7222,3409 7225,3412 7228,3416 7230,3419 7233,3423 7234,3424 7235,3426 7236,3427 7237,3429 7239,3433 7240,3437 7242,3441 7242,3445 7243,3450 7244,3455 7254,3703 7483,3806 7486,3808 7490,3809 7493,3812 7496,3814 7499,3816 7503,3819 7506,3822 7509,3826 7511,3829 7513,3833 7515,3837 7516,3842 7518,3846 7519,3850 7519,3855 7520,3860 7520,3864 7520,3868 7520,3872 7520,3876 7519,3879 7518,3883 7516,3887 7515,3891 7513,3895 7511,3899 7509,3903 7506,3906 7503,3910 7501,3913 7498,3915 7495,3918 7491,3920 7487,3923 7483,3925 7479,3926 7475,3928 7471,3929 7467,3930 7463,3931 7458,3931 7453,3931 7449,3931 7445,3930 7440,3929 7436,3928 7433,3927 7430,3926 7260,3849 7267,4033 Z"/>
        </g>
       </g>
       <g class="com.sun.star.drawing.PolyPolygonShape">
        <g id="id14">
         <rect class="BoundingBox" stroke="none" fill="none" x="11016" y="3827" width="801" height="753"/>
         <path fill="rgb(39,24,8)" stroke="none" d="M 11129,4344 L 11123,4349 11119,4351 11116,4353 11112,4355 11108,4357 11104,4358 11099,4360 11095,4361 11091,4361 11086,4362 11082,4362 11078,4362 11074,4361 11070,4361 11066,4360 11062,4358 11058,4357 11054,4355 11051,4353 11047,4351 11043,4349 11040,4346 11036,4344 11033,4340 11030,4337 11028,4333 11026,4330 11024,4326 11022,4322 11021,4318 11019,4314 11018,4309 11017,4304 11017,4300 11016,4296 11017,4292 11017,4288 11018,4284 11019,4281 11021,4276 11022,4272 11024,4268 11026,4264 11029,4260 11031,4257 11036,4250 11443,3849 11447,3845 11450,3842 11454,3840 11457,3838 11461,3836 11465,3834 11469,3833 11472,3832 11477,3830 11481,3829 11483,3828 11485,3828 11487,3828 11489,3828 11492,3828 11494,3828 11498,3829 11503,3830 11507,3832 11512,3833 11516,3834 11520,3836 11524,3838 11527,3840 11531,3842 11534,3845 11536,3849 11539,3852 11542,3855 11544,3858 11547,3862 11549,3866 11551,3870 11552,3874 11553,3878 11554,3880 11554,3881 11554,3885 11554,3889 11554,3893 11554,3895 11554,3895 11554,3895 11554,3895 11554,3895 11554,3895 11554,3895 11554,3895 11554,3895 11554,3893 11581,4239 11707,4123 11710,4120 11714,4117 11717,4115 11721,4113 11724,4112 11728,4110 11732,4109 11736,4108 11738,4107 11740,4107 11744,4106 11749,4106 11753,4106 11758,4106 11762,4107 11767,4108 11771,4109 11775,4110 11779,4112 11783,4114 11786,4116 11790,4118 11793,4121 11796,4124 11799,4128 11802,4131 11804,4134 11806,4137 11808,4141 11810,4144 11811,4148 11812,4152 11813,4156 11814,4160 11815,4164 11815,4169 11815,4173 11815,4178 11814,4182 11813,4187 11812,4192 11811,4196 11810,4200 11808,4203 11806,4207 11803,4210 11801,4213 11798,4216 11795,4219 11422,4562 11419,4564 11415,4567 11412,4569 11408,4571 11405,4573 11401,4575 11397,4576 11393,4578 11389,4578 11384,4579 11380,4579 11376,4579 11371,4579 11367,4578 11363,4577 11358,4576 11354,4574 11349,4573 11345,4571 11342,4569 11340,4568 11338,4567 11337,4566 11335,4564 11334,4563 11332,4561 11329,4558 11327,4554 11324,4551 11322,4548 11321,4545 11319,4541 11318,4537 11317,4533 11315,4529 11315,4527 11314,4524 11313,4520 11313,4516 11313,4511 11313,4507 11314,4503 11314,4498 11315,4494 11317,4489 11319,4485 11321,4482 11323,4478 11325,4475 11328,4472 11334,4466 11459,4351 11436,4039 11129,4344 Z"/>
        </g>
       </g>
       <g class="com.sun.star.drawing.PolyPolygonShape">
        <g id="id15">
         <rect class="BoundingBox" stroke="none" fill="none" x="10548" y="3397" width="614" height="609"/>
         <path fill="rgb(39,24,8)" stroke="none" d="M 10664,3965 L 10659,3970 10656,3972 10653,3975 10650,3977 10647,3979 10643,3981 10639,3984 10635,3985 10630,3986 10626,3987 10621,3987 10617,3987 10613,3987 10608,3986 10603,3986 10599,3985 10595,3984 10591,3982 10588,3981 10584,3979 10580,3977 10577,3974 10573,3972 10570,3969 10567,3967 10565,3965 10564,3964 10562,3962 10561,3961 10559,3957 10557,3954 10555,3949 10553,3945 10552,3940 10551,3936 10550,3932 10549,3928 10549,3923 10549,3919 10550,3915 10550,3913 10550,3911 10551,3907 10552,3903 10554,3899 10555,3895 10557,3891 10559,3887 10562,3883 10564,3880 10754,3652 10745,3645 10736,3638 10719,3624 10703,3610 10688,3596 10686,3593 10684,3589 10681,3586 10679,3582 10678,3579 10676,3575 10675,3571 10673,3568 10672,3563 10671,3559 10670,3557 10670,3554 10670,3552 10670,3550 10670,3548 10670,3546 10671,3541 10672,3536 10673,3532 10676,3524 10678,3520 10680,3517 10682,3513 10685,3510 10687,3507 10690,3504 10698,3499 10701,3497 10705,3495 10708,3493 10712,3491 10716,3489 10720,3488 10725,3487 10729,3486 10733,3486 10737,3486 10742,3486 10746,3487 10751,3488 10755,3490 10760,3491 10764,3493 10767,3494 10771,3496 10774,3498 10778,3500 10781,3502 10784,3505 10790,3511 10795,3516 10801,3521 10808,3527 10822,3538 10838,3552 10943,3423 10950,3416 10953,3413 10957,3411 10960,3408 10964,3406 10968,3404 10972,3403 10976,3401 10980,3400 10984,3399 10988,3398 10992,3398 10996,3398 11000,3399 11004,3400 11009,3400 11013,3401 11017,3402 11022,3404 11026,3406 11030,3408 11034,3411 11037,3414 11039,3415 11041,3416 11042,3418 11044,3419 11045,3421 11046,3422 11049,3426 11050,3429 11052,3432 11053,3436 11054,3440 11056,3444 11058,3449 11059,3453 11060,3457 11060,3461 11060,3466 11059,3475 11057,3483 11056,3487 11054,3491 11053,3495 11051,3498 11049,3502 11046,3505 10947,3623 10952,3626 10960,3632 10983,3650 11046,3702 11109,3756 11131,3776 11138,3783 11140,3786 11141,3788 11146,3797 11149,3806 11155,3824 11157,3828 11158,3833 11159,3838 11160,3842 11160,3847 11160,3851 11160,3861 11160,3867 11160,3872 11159,3878 11159,3884 11158,3890 11156,3895 11154,3901 11152,3907 11151,3912 11149,3917 11147,3922 11144,3928 11141,3933 11138,3938 11135,3943 11131,3949 11113,3972 11107,3977 11100,3982 11093,3987 11086,3991 11083,3992 11079,3994 11075,3995 11071,3997 11068,3998 11064,3999 11056,4001 11053,4002 11050,4003 11046,4004 11043,4004 11039,4004 11036,4005 11027,4005 11021,4005 11015,4004 11008,4003 11002,4002 10995,4001 10989,4000 10982,3998 10975,3996 10964,3992 10953,3987 10941,3981 10929,3974 10924,3970 10916,3965 10896,3952 10845,3915 10758,3851 10664,3965 Z M 10842,3751 L 10921,3808 10965,3841 10993,3861 11000,3864 11006,3867 11008,3868 11011,3869 11014,3870 11015,3870 11016,3871 11017,3871 11017,3871 11019,3871 11020,3870 11021,3870 11023,3869 11025,3868 11026,3867 11028,3866 11029,3865 11030,3864 11030,3863 11030,3863 11031,3862 11031,3861 11031,3860 11031,3859 11031,3858 11030,3857 11030,3856 11029,3854 11028,3853 11026,3851 11026,3850 11024,3848 11019,3843 11001,3829 10950,3789 10896,3747 10876,3732 10863,3724 10842,3751 Z"/>
        </g>
       </g>
       <g class="com.sun.star.drawing.PolyPolygonShape">
        <g id="id16">
         <rect class="BoundingBox" stroke="none" fill="none" x="9169" y="2856" width="475" height="608"/>
         <path fill="rgb(39,24,8)" stroke="none" d="M 9578,3087 L 9579,3087 9581,3087 9582,3087 9582,3088 9584,3088 9585,3088 9586,3088 9588,3088 9589,3088 9591,3088 9592,3088 9592,3088 9592,3088 9592,3088 9592,3088 9592,3088 9592,3088 9592,3088 9592,3088 9592,3088 9592,3088 9592,3088 9592,3088 9592,3088 9592,3088 9592,3089 9592,3090 9593,3090 9595,3090 9596,3090 9596,3091 9598,3091 9599,3091 9601,3091 9601,3092 9602,3092 9603,3092 9604,3092 9604,3092 9604,3092 9604,3092 9604,3092 9604,3092 9605,3092 9605,3092 9605,3092 9605,3093 9605,3093 9605,3093 9605,3093 9605,3094 9606,3094 9606,3095 9608,3095 9609,3097 9611,3097 9611,3098 9612,3098 9613,3098 9615,3098 9615,3100 9616,3100 9616,3101 9618,3101 9619,3101 9619,3102 9621,3102 9621,3104 9622,3104 9622,3105 9623,3105 9623,3107 9625,3107 9625,3108 9626,3108 9626,3109 9628,3111 9628,3112 9629,3112 9629,3114 9630,3114 9630,3115 9630,3117 9632,3117 9632,3118 9633,3118 9633,3119 9633,3121 9635,3121 9635,3122 9635,3124 9636,3124 9636,3125 9636,3127 9638,3127 9638,3128 9638,3129 9638,3131 9639,3131 9639,3132 9639,3134 9639,3135 9640,3135 9640,3137 9640,3138 9640,3139 9640,3141 9641,3141 9641,3141 9641,3141 9641,3141 9642,3141 9642,3141 9642,3141 9642,3141 9642,3141 9642,3141 9642,3141 9642,3141 9642,3141 9642,3142 9642,3142 9642,3142 9642,3144 9642,3145 9642,3146 9642,3148 9642,3149 9642,3151 9642,3152 9642,3397 9642,3401 9642,3405 9641,3409 9640,3414 9639,3418 9637,3422 9636,3426 9633,3430 9632,3432 9631,3433 9629,3437 9626,3440 9623,3443 9620,3446 9617,3448 9609,3454 9608,3455 9606,3456 9604,3457 9603,3458 9599,3459 9594,3460 9590,3461 9586,3462 9581,3463 9576,3463 9572,3463 9568,3462 9564,3461 9560,3460 9556,3459 9552,3458 9548,3456 9544,3454 9538,3448 9535,3446 9532,3443 9529,3440 9526,3437 9524,3433 9521,3430 9519,3426 9517,3422 9515,3418 9514,3414 9513,3409 9512,3405 9512,3401 9511,3397 9511,3218 9307,3215 9310,3224 9313,3233 9316,3241 9319,3250 9325,3263 9331,3275 9337,3288 9344,3300 9352,3313 9361,3325 9370,3337 9380,3349 9383,3352 9386,3355 9388,3359 9390,3362 9392,3366 9394,3370 9395,3374 9396,3379 9397,3387 9397,3391 9397,3395 9396,3400 9396,3404 9395,3408 9393,3413 9392,3417 9391,3421 9389,3424 9386,3428 9384,3431 9381,3434 9378,3437 9374,3440 9373,3441 9371,3443 9368,3445 9364,3447 9360,3449 9356,3451 9352,3453 9348,3454 9343,3455 9340,3456 9336,3456 9332,3456 9328,3456 9324,3456 9319,3456 9315,3455 9310,3454 9306,3452 9302,3450 9299,3448 9295,3446 9292,3443 9288,3440 9285,3437 9282,3434 9268,3417 9255,3401 9243,3384 9232,3368 9222,3351 9213,3334 9205,3316 9198,3299 9191,3280 9186,3262 9181,3244 9176,3226 9173,3208 9171,3190 9170,3172 9169,3155 9170,3135 9171,3116 9174,3097 9177,3078 9182,3060 9187,3041 9194,3023 9201,3006 9208,2988 9217,2971 9226,2954 9236,2938 9247,2922 9258,2906 9271,2891 9283,2877 9287,2874 9290,2871 9294,2869 9298,2866 9302,2864 9305,2862 9309,2861 9313,2860 9318,2859 9322,2858 9326,2857 9330,2857 9335,2857 9339,2857 9343,2858 9346,2859 9351,2860 9355,2861 9358,2863 9362,2865 9366,2867 9370,2870 9373,2873 9376,2876 9382,2882 9385,2886 9387,2889 9390,2893 9392,2896 9393,2900 9394,2904 9395,2908 9396,2913 9397,2917 9397,2921 9397,2926 9396,2930 9395,2934 9394,2939 9393,2943 9392,2947 9390,2951 9388,2955 9386,2959 9384,2962 9381,2966 9378,2969 9369,2978 9361,2988 9353,2999 9345,3009 9338,3020 9332,3032 9326,3043 9320,3055 9318,3062 9315,3070 9310,3085 9578,3087 Z"/>
        </g>
       </g>
       <g class="com.sun.star.drawing.PolyPolygonShape">
        <g id="id17">
         <rect class="BoundingBox" stroke="none" fill="none" x="7446" y="3171" width="710" height="582"/>
         <path fill="rgb(39,24,8)" stroke="none" d="M 8038,3388 L 8039,3386 8040,3384 8042,3383 8043,3381 8047,3378 8050,3376 8054,3374 8058,3372 8067,3368 8071,3366 8075,3365 8079,3364 8084,3364 8088,3364 8092,3364 8096,3365 8101,3366 8102,3366 8104,3366 8108,3367 8112,3369 8116,3370 8120,3372 8123,3375 8127,3377 8131,3380 8134,3383 8136,3386 8139,3389 8142,3393 8145,3396 8147,3400 8149,3403 8151,3407 8152,3411 8153,3415 8154,3420 8154,3424 8154,3429 8154,3433 8154,3437 8154,3442 8152,3446 8151,3450 8150,3454 8148,3458 8146,3462 8143,3466 8141,3470 8138,3474 8001,3633 7998,3636 7995,3639 7992,3642 7988,3644 7984,3647 7981,3649 7977,3650 7973,3652 7969,3653 7965,3654 7961,3655 7956,3655 7952,3656 7948,3656 7944,3655 7940,3655 7935,3654 7931,3652 7927,3651 7923,3649 7919,3647 7915,3645 7912,3642 7909,3640 7905,3637 7902,3633 7900,3630 7898,3627 7895,3623 7893,3620 7890,3612 7888,3608 7887,3604 7887,3600 7886,3596 7886,3592 7886,3587 7887,3579 7888,3574 7889,3569 7891,3565 7893,3561 7895,3558 7897,3554 7899,3551 7902,3548 8038,3388 Z M 7812,3647 L 7814,3650 7817,3654 7819,3659 7821,3663 7823,3667 7824,3671 7825,3675 7825,3677 7826,3679 7826,3683 7826,3687 7826,3691 7826,3696 7825,3700 7824,3704 7823,3708 7822,3713 7817,3720 7812,3727 7809,3731 7806,3734 7804,3737 7801,3740 7797,3742 7793,3744 7789,3746 7784,3747 7780,3748 7776,3749 7772,3750 7768,3751 7764,3751 7760,3751 7756,3751 7751,3751 7747,3750 7743,3749 7739,3748 7735,3747 7731,3745 7727,3743 7723,3741 7720,3739 7717,3736 7713,3733 7710,3730 7708,3727 7580,3561 7577,3557 7575,3553 7573,3549 7571,3545 7570,3541 7568,3537 7567,3533 7567,3529 7566,3525 7566,3520 7566,3516 7567,3512 7567,3508 7568,3503 7569,3499 7571,3495 7573,3491 7575,3487 7577,3484 7580,3480 7583,3477 7586,3474 7587,3473 7589,3472 7591,3471 7593,3470 7596,3467 7600,3464 7604,3462 7608,3461 7612,3459 7615,3458 7619,3457 7624,3457 7628,3456 7632,3456 7636,3456 7641,3456 7645,3457 7649,3458 7653,3459 7658,3461 7661,3462 7665,3464 7669,3466 7672,3469 7676,3471 7679,3474 7682,3477 7685,3481 7697,3495 7717,3463 7727,3447 7737,3431 7750,3405 7756,3392 7758,3386 7761,3380 7762,3375 7763,3370 7764,3366 7765,3361 7765,3357 7765,3353 7766,3344 7766,3337 7766,3336 7766,3335 7765,3335 7765,3334 7765,3334 7765,3334 7765,3333 7765,3333 7765,3333 7765,3333 7765,3332 7765,3332 7764,3332 7764,3331 7764,3331 7764,3331 7764,3331 7764,3330 7764,3330 7763,3330 7763,3330 7763,3330 7763,3330 7762,3330 7762,3330 7762,3330 7761,3329 7761,3329 7761,3328 7760,3328 7760,3327 7760,3327 7759,3326 7757,3325 7756,3324 7755,3323 7750,3321 7746,3319 7741,3317 7736,3315 7725,3312 7714,3310 7705,3308 7696,3306 7687,3305 7677,3304 7656,3303 7634,3303 7608,3303 7581,3305 7520,3310 7515,3310 7511,3310 7507,3310 7503,3310 7499,3309 7495,3308 7491,3307 7487,3306 7479,3301 7475,3298 7472,3296 7469,3293 7465,3290 7462,3286 7460,3283 7457,3279 7455,3276 7453,3272 7451,3269 7450,3265 7448,3261 7447,3257 7447,3253 7446,3248 7447,3244 7447,3240 7448,3235 7449,3231 7450,3227 7451,3223 7453,3219 7453,3217 7454,3215 7456,3211 7459,3207 7461,3204 7464,3201 7467,3198 7471,3195 7475,3193 7478,3190 7482,3188 7486,3186 7489,3184 7493,3183 7497,3182 7501,3181 7506,3181 7541,3177 7574,3174 7605,3172 7634,3172 7663,3172 7690,3174 7715,3177 7739,3181 7751,3183 7762,3187 7774,3190 7785,3194 7795,3198 7804,3201 7813,3206 7822,3210 7830,3216 7838,3222 7842,3225 7846,3229 7849,3232 7853,3236 7857,3239 7861,3243 7864,3247 7868,3252 7871,3256 7874,3260 7876,3265 7879,3270 7881,3274 7884,3278 7886,3282 7888,3287 7890,3291 7892,3296 7893,3301 7895,3307 7897,3326 7898,3335 7898,3339 7899,3344 7898,3353 7898,3362 7897,3372 7895,3382 7893,3392 7891,3401 7888,3411 7885,3421 7878,3439 7870,3457 7866,3467 7861,3476 7855,3485 7850,3495 7843,3508 7835,3521 7818,3548 7799,3576 7778,3605 7812,3647 Z"/>
        </g>
       </g>
       <g class="com.sun.star.drawing.PolyPolygonShape">
        <g id="id18">
         <rect class="BoundingBox" stroke="none" fill="none" x="8525" y="2896" width="495" height="659"/>
         <path fill="rgb(39,24,8)" stroke="none" d="M 8526,2963 L 8526,2961 8526,2960 8526,2958 8526,2957 8526,2956 8526,2954 8526,2953 8528,2953 8528,2951 8528,2950 8528,2948 8528,2947 8528,2946 8529,2946 8529,2944 8529,2943 8529,2941 8531,2941 8531,2940 8531,2938 8531,2937 8532,2937 8532,2936 8532,2934 8533,2934 8533,2933 8533,2931 8535,2931 8535,2930 8536,2930 8536,2929 8538,2927 8538,2926 8539,2926 8539,2924 8540,2924 8540,2924 8540,2924 8540,2924 8540,2924 8540,2924 8540,2924 8540,2924 8540,2923 8540,2923 8540,2923 8540,2923 8540,2923 8540,2923 8541,2923 8541,2923 8541,2923 8541,2921 8542,2921 8542,2920 8543,2920 8543,2919 8545,2919 8545,2917 8546,2917 8546,2916 8548,2916 8548,2914 8549,2914 8549,2913 8550,2913 8550,2911 8552,2911 8553,2911 8553,2910 8555,2910 8555,2909 8556,2909 8558,2907 8559,2907 8559,2906 8560,2906 8560,2904 8562,2904 8563,2904 8563,2903 8565,2903 8566,2903 8566,2901 8568,2901 8569,2901 8570,2901 8570,2900 8572,2900 8573,2900 8575,2900 8575,2899 8576,2899 8578,2899 8579,2899 8580,2899 8582,2899 8582,2897 8583,2897 8585,2897 8586,2897 8588,2897 8589,2897 8590,2897 8592,2897 8593,2897 8595,2897 8596,2897 8597,2897 8599,2897 8600,2897 8602,2897 8602,2899 8603,2899 8605,2899 8606,2899 8607,2899 8609,2899 8609,2900 8610,2900 8612,2900 8613,2900 8613,2901 8615,2901 8616,2901 8617,2901 8617,2903 8619,2903 8620,2903 8620,2904 8622,2904 8623,2904 8623,2906 8625,2906 8626,2906 8626,2907 8627,2907 8627,2909 8629,2909 8629,2910 8630,2910 8630,2911 8632,2911 8633,2911 8633,2913 8634,2913 8634,2914 8636,2914 8636,2916 8637,2916 8637,2917 8639,2917 8639,2919 8640,2919 8640,2920 8642,2920 8642,2921 8743,3042 8915,2911 8916,2911 8916,2910 8918,2910 8919,2910 8919,2909 8921,2909 8921,2907 8922,2907 8923,2907 8923,2906 8925,2906 8926,2906 8926,2904 8928,2904 8929,2904 8929,2903 8931,2903 8932,2903 8933,2903 8933,2901 8935,2901 8936,2901 8938,2901 8938,2900 8939,2900 8941,2900 8941,2900 8942,2900 8942,2899 8943,2899 8944,2899 8946,2899 8947,2899 8949,2899 8950,2899 8951,2899 8953,2899 8954,2899 8956,2899 8957,2899 8959,2899 8960,2899 8961,2899 8963,2899 8964,2899 8964,2900 8966,2900 8967,2900 8968,2900 8970,2900 8970,2901 8971,2901 8973,2901 8974,2901 8974,2903 8976,2903 8977,2903 8978,2903 8978,2904 8980,2904 8981,2904 8981,2906 8983,2906 8984,2906 8984,2907 8986,2907 8987,2907 8987,2909 8988,2909 8988,2910 8990,2910 8991,2910 8991,2911 8993,2911 8993,2913 8994,2913 8994,2914 8996,2914 8997,2916 8998,2916 8998,2916 8998,2916 8998,2916 8998,2916 8998,2916 8998,2916 8998,2916 8998,2916 8998,2916 8998,2916 8998,2916 8998,2916 8998,2916 8998,2916 8998,2917 8999,2917 9000,2917 9000,2917 9000,2917 9000,2917 9000,2917 9000,2917 9000,2917 9000,2917 9000,2917 9000,2917 9000,2917 9000,2917 9000,2918 9000,2918 9000,2919 9001,2919 9001,2919 9001,2919 9001,2919 9001,2919 9001,2919 9001,2919 9001,2919 9001,2919 9001,2919 9001,2919 9001,2920 9001,2920 9001,2920 9003,2921 9003,2923 9004,2923 9004,2924 9005,2924 9005,2926 9007,2926 9007,2927 9007,2929 9008,2929 9008,2930 9010,2930 9010,2931 9011,2931 9011,2933 9011,2934 9013,2934 9013,2936 9013,2937 9014,2937 9014,2938 9014,2940 9015,2941 9015,2943 9015,2944 9017,2946 9017,2947 9017,2948 9017,2950 9017,2950 9018,2950 9018,2950 9018,2950 9018,2950 9018,2950 9018,2950 9018,2950 9018,2950 9018,2951 9018,2951 9018,2951 9018,2951 9018,2951 9018,2953 9018,2954 9018,2956 9018,2957 9018,2958 9018,2960 9018,2961 9018,2963 9018,2964 9018,3403 9018,3407 9018,3412 9017,3416 9016,3420 9015,3425 9014,3429 9012,3433 9010,3437 9008,3440 9006,3444 9003,3447 9000,3450 8997,3453 8994,3456 8990,3458 8986,3461 8985,3462 8983,3463 8979,3464 8975,3466 8970,3466 8966,3467 8962,3467 8958,3468 8953,3468 8949,3468 8945,3467 8941,3467 8937,3466 8933,3466 8929,3464 8925,3463 8922,3461 8918,3458 8914,3456 8911,3453 8908,3451 8905,3448 8902,3445 8900,3441 8898,3438 8657,3145 8657,3488 8656,3492 8656,3496 8655,3500 8654,3505 8653,3509 8652,3513 8650,3517 8649,3522 8646,3525 8643,3529 8640,3532 8637,3535 8634,3537 8631,3540 8628,3542 8625,3545 8621,3547 8617,3549 8613,3550 8608,3551 8604,3552 8600,3553 8596,3554 8592,3554 8587,3554 8583,3553 8578,3552 8574,3551 8570,3550 8566,3549 8562,3547 8559,3545 8555,3542 8551,3540 8548,3537 8545,3535 8542,3532 8539,3529 8537,3525 8535,3522 8532,3517 8531,3513 8529,3509 8528,3505 8527,3500 8526,3496 8526,3492 8526,3488 8526,2963 Z M 8889,3220 L 8889,3095 8827,3142 8889,3220 Z"/>
        </g>
       </g>
       <g class="com.sun.star.drawing.PolyPolygonShape">
        <g id="id19">
         <rect class="BoundingBox" stroke="none" fill="none" x="10010" y="3102" width="497" height="542"/>
         <path fill="rgb(39,24,8)" stroke="none" d="M 10028,3529 L 10026,3531 10026,3531 10026,3531 10026,3531 10026,3531 10026,3531 10026,3531 10026,3531 10026,3531 10026,3531 10026,3531 10026,3531 10026,3531 10026,3531 10026,3531 10026,3531 10026,3531 10026,3531 10026,3531 10026,3531 10026,3531 10026,3532 10026,3532 10025,3532 10025,3532 10025,3532 10025,3532 10025,3532 10025,3532 10025,3532 10025,3532 10025,3532 10025,3532 10025,3532 10025,3532 10024,3533 10024,3533 10024,3534 10024,3534 10024,3534 10024,3534 10024,3535 10024,3535 10024,3535 10024,3535 10023,3535 10023,3535 10023,3537 10022,3538 10022,3540 10021,3540 10021,3541 10019,3540 10020,3541 10018,3541 10018,3543 10018,3544 10017,3544 10017,3546 10016,3546 10016,3547 10016,3549 10015,3549 10015,3550 10015,3552 10013,3552 10014,3553 10014,3555 10012,3555 10014,3556 10014,3558 10011,3559 10011,3561 10012,3562 10010,3564 10010,3565 10011,3567 10011,3568 10011,3568 10011,3568 10012,3568 10012,3568 10012,3568 10012,3568 10012,3568 10012,3568 10012,3569 10012,3569 10012,3569 10012,3569 10012,3570 10012,3570 10012,3570 10011,3571 10011,3572 10010,3574 10010,3575 10010,3577 10010,3578 10010,3579 10011,3581 10012,3582 10012,3584 10012,3585 10013,3586 10011,3588 10011,3589 10012,3591 10012,3592 10012,3594 10012,3595 10013,3595 10015,3596 10015,3598 10015,3599 10015,3600 10017,3600 10016,3602 10016,3603 10016,3605 10017,3605 10017,3606 10018,3607 10019,3609 10019,3610 10019,3611 10021,3611 10022,3613 10023,3614 10024,3614 10023,3615 10026,3615 10024,3617 10024,3618 10026,3618 10026,3619 10027,3619 10028,3621 10028,3622 10029,3622 10029,3623 10031,3623 10031,3625 10032,3624 10032,3626 10034,3626 10034,3627 10035,3627 10034,3629 10035,3628 10036,3630 10037,3628 10037,3630 10039,3631 10040,3632 10042,3632 10043,3633 10045,3633 10045,3635 10046,3634 10048,3634 10048,3636 10049,3636 10049,3637 10051,3637 10052,3637 10054,3638 10055,3638 10055,3639 10057,3639 10058,3639 10060,3640 10061,3640 10062,3640 10061,3642 10063,3641 10064,3641 10067,3640 10068,3641 10067,3642 10068,3642 10070,3642 10071,3642 10073,3642 10074,3642 10076,3643 10077,3643 10078,3641 10080,3641 10100,3643 10487,3213 10490,3210 10493,3207 10496,3203 10498,3199 10500,3195 10502,3191 10502,3189 10503,3188 10503,3186 10503,3184 10504,3179 10505,3175 10505,3170 10506,3165 10505,3161 10505,3157 10504,3153 10503,3151 10502,3149 10501,3145 10499,3141 10497,3137 10495,3133 10493,3129 10490,3126 10487,3123 10483,3120 10480,3117 10477,3114 10474,3112 10470,3109 10467,3107 10463,3105 10459,3104 10454,3103 10438,3102 10434,3102 10430,3103 10428,3103 10426,3103 10424,3104 10422,3105 10420,3105 10418,3106 10414,3107 10411,3109 10407,3111 10403,3113 10400,3116 10397,3119 10393,3122 10028,3529 Z"/>
        </g>
       </g>
       <g class="com.sun.star.drawing.PolyPolygonShape">
        <g id="id20">
         <rect class="BoundingBox" stroke="none" fill="none" x="10283" y="3462" width="344" height="341"/>
         <path fill="rgb(39,24,8)" stroke="none" d="M 10283,3464 L 10295,3742 10296,3746 10297,3750 10298,3754 10299,3758 10301,3762 10303,3766 10305,3771 10307,3775 10310,3778 10313,3781 10316,3784 10318,3786 10322,3789 10325,3791 10328,3793 10332,3795 10334,3796 10336,3797 10341,3798 10345,3800 10350,3801 10354,3801 10359,3802 10363,3802 10367,3802 10371,3801 10375,3800 10378,3799 10382,3798 10385,3796 10389,3794 10393,3792 10396,3790 10400,3787 10403,3784 10406,3780 10409,3777 10411,3773 10414,3770 10416,3766 10417,3763 10419,3758 10421,3754 10422,3749 10423,3745 10424,3741 10424,3739 10424,3737 10423,3732 10422,3728 10410,3605 10455,3599 10518,3654 10522,3657 10526,3659 10530,3661 10534,3663 10538,3665 10541,3666 10545,3667 10549,3668 10554,3669 10558,3669 10562,3669 10566,3669 10570,3669 10574,3668 10578,3666 10582,3665 10586,3663 10590,3661 10594,3659 10598,3657 10601,3654 10604,3651 10607,3648 10610,3645 10613,3641 10616,3637 10618,3633 10619,3629 10621,3625 10622,3621 10623,3617 10623,3613 10624,3608 10625,3604 10625,3600 10625,3596 10624,3591 10623,3587 10621,3583 10619,3579 10618,3575 10616,3572 10614,3568 10611,3565 10609,3561 10606,3558 10603,3555 10601,3554 10599,3553 10515,3480 10514,3479 10513,3479 10511,3476 10510,3476 10510,3475 10508,3475 10507,3475 10507,3474 10505,3474 10505,3472 10504,3474 10504,3472 10502,3473 10501,3473 10501,3471 10499,3472 10499,3470 10498,3469 10498,3467 10496,3468 10495,3468 10495,3466 10493,3466 10492,3468 10491,3468 10490,3467 10489,3467 10488,3467 10486,3467 10486,3466 10485,3466 10483,3465 10482,3465 10481,3463 10480,3464 10479,3464 10477,3465 10476,3465 10475,3466 10473,3466 10472,3464 10470,3465 10469,3463 10467,3463 10283,3464 Z"/>
        </g>
       </g>
       <g class="com.sun.star.drawing.PolyPolygonShape">
        <g id="id21">
         <rect class="BoundingBox" stroke="none" fill="none" x="2093" y="6249" width="476" height="1442"/>
         <path fill="rgb(39,24,8)" stroke="none" d="M 2446,6285 L 2447,6281 2449,6278 2452,6275 2454,6272 2457,6269 2459,6266 2463,6264 2464,6263 2466,6262 2469,6259 2472,6257 2476,6256 2480,6254 2484,6253 2488,6251 2492,6250 2496,6250 2498,6249 2499,6249 2503,6249 2506,6250 2510,6251 2514,6252 2517,6253 2525,6256 2529,6257 2532,6259 2535,6261 2539,6264 2541,6266 2543,6268 2544,6269 2545,6271 2546,6272 2547,6274 2548,6276 2550,6279 2553,6282 2555,6286 2557,6290 2558,6294 2559,6297 2560,6301 2561,6306 2561,6309 2561,6313 2560,6317 2560,6321 2559,6324 2558,6328 2557,6332 2555,6336 2222,7057 2560,7597 2561,7601 2563,7604 2564,7607 2565,7611 2566,7615 2567,7619 2568,7623 2568,7627 2568,7631 2567,7635 2567,7638 2566,7642 2565,7646 2564,7650 2562,7653 2561,7656 2560,7658 2559,7660 2557,7663 2555,7666 2552,7669 2549,7672 2546,7675 2543,7677 2540,7679 2536,7682 2533,7683 2529,7685 2526,7686 2522,7687 2518,7688 2515,7689 2511,7689 2506,7689 2502,7689 2497,7688 2493,7687 2490,7686 2486,7685 2483,7683 2480,7681 2476,7679 2473,7677 2470,7675 2467,7673 2464,7670 2462,7667 2459,7664 2457,7661 2103,7093 2101,7093 2098,7085 2096,7077 2095,7073 2094,7069 2094,7065 2094,7061 2094,7058 2094,7055 2094,7052 2095,7049 2096,7046 2097,7043 2098,7040 2099,7038 2100,7036 2446,6285 Z"/>
        </g>
       </g>
       <g class="com.sun.star.drawing.PolyPolygonShape">
        <g id="id22">
         <rect class="BoundingBox" stroke="none" fill="none" x="2688" y="6246" width="426" height="1441"/>
         <path fill="rgb(39,24,8)" stroke="none" d="M 3113,7353 L 3113,7357 3112,7361 3112,7365 3111,7369 3110,7372 3109,7376 3107,7380 3105,7384 3104,7386 3103,7388 3100,7391 3098,7395 3097,7397 3096,7398 3093,7404 3089,7409 3085,7414 3081,7418 3077,7422 3072,7426 3067,7430 3062,7433 3056,7436 3050,7438 3044,7440 3038,7441 3032,7442 3027,7443 3021,7443 3015,7442 3008,7442 3002,7442 2996,7441 2990,7439 2984,7437 2979,7435 2973,7433 2968,7430 2809,7331 2809,7625 2809,7629 2808,7633 2808,7637 2807,7641 2806,7645 2805,7648 2804,7652 2802,7655 2791,7668 2789,7670 2786,7673 2782,7675 2781,7676 2779,7677 2775,7680 2772,7681 2768,7683 2764,7684 2760,7685 2756,7685 2753,7685 2749,7685 2745,7685 2741,7685 2738,7685 2734,7684 2730,7683 2726,7681 2723,7680 2719,7677 2717,7676 2715,7675 2712,7673 2709,7670 2706,7668 2703,7665 2701,7662 2696,7655 2694,7652 2693,7648 2692,7645 2691,7641 2690,7637 2689,7633 2689,7629 2689,7625 2689,6308 2689,6303 2689,6299 2690,6296 2691,6292 2692,6288 2693,6284 2694,6281 2696,6278 2698,6274 2701,6271 2703,6268 2706,6265 2709,6262 2712,6260 2715,6258 2719,6256 2723,6254 2726,6252 2730,6251 2734,6250 2738,6249 2741,6249 2745,6249 2749,6249 2753,6249 2756,6249 2760,6249 2764,6250 2768,6251 2772,6252 2775,6254 2779,6256 2782,6258 2786,6260 2789,6262 2791,6265 2794,6268 2797,6271 2802,6278 2804,6281 2805,6284 2806,6288 2807,6292 2808,6296 2808,6299 2809,6303 2809,6308 2809,7115 2810,7116 2813,7117 2820,7121 2842,7134 2905,7171 2994,7223 2994,6307 2994,6303 2994,6299 2994,6295 2995,6292 2996,6288 2997,6284 2999,6280 3001,6277 3003,6273 3005,6270 3008,6266 3011,6264 3013,6261 3016,6258 3019,6256 3022,6254 3029,6251 3033,6250 3037,6249 3041,6248 3045,6247 3049,6247 3054,6247 3058,6247 3061,6247 3065,6248 3069,6249 3072,6250 3075,6251 3079,6252 3082,6254 3085,6256 3089,6258 3092,6261 3095,6264 3098,6266 3100,6270 3102,6273 3105,6277 3107,6280 3109,6284 3110,6288 3111,6292 3112,6295 3112,6299 3113,6303 3113,6307 3113,7353 Z"/>
        </g>
       </g>
       <g class="com.sun.star.drawing.PolyPolygonShape">
        <g id="id23">
         <rect class="BoundingBox" stroke="none" fill="none" x="3182" y="6248" width="503" height="1441"/>
         <path fill="rgb(39,24,8)" stroke="none" d="M 3590,6690 L 3596,6690 3603,6690 3609,6691 3615,6693 3621,6694 3627,6697 3629,6698 3632,6699 3634,6701 3637,6703 3642,6706 3647,6709 3652,6713 3657,6717 3661,6722 3665,6726 3669,6731 3673,6737 3675,6742 3677,6748 3679,6754 3681,6760 3682,6765 3683,6771 3684,6777 3684,6784 3684,6790 3683,6796 3682,6802 3681,6808 3679,6814 3677,6820 3674,6825 3671,6831 3668,6836 3664,6840 3660,6845 3656,6849 3651,6853 3646,6857 3642,6861 3637,6865 3631,6868 3626,6870 3620,6872 3614,6874 3608,6875 3601,6876 3595,6876 3589,6876 3495,6876 3495,7057 3622,7057 3626,7058 3629,7058 3633,7059 3637,7059 3641,7061 3644,7062 3652,7064 3655,7067 3659,7069 3662,7071 3665,7074 3667,7077 3670,7080 3672,7084 3674,7087 3675,7089 3675,7091 3677,7094 3678,7098 3679,7101 3680,7105 3680,7109 3681,7113 3681,7116 3681,7286 3681,7290 3680,7294 3680,7298 3679,7301 3678,7305 3677,7308 3675,7311 3674,7314 3672,7318 3670,7321 3667,7325 3665,7327 3662,7330 3659,7333 3655,7335 3652,7337 3644,7340 3641,7341 3637,7342 3633,7343 3629,7344 3626,7344 3622,7344 3618,7344 3614,7344 3610,7343 3606,7342 3602,7341 3598,7340 3595,7339 3592,7337 3588,7335 3585,7333 3582,7330 3579,7327 3576,7325 3573,7321 3571,7318 3569,7314 3568,7313 3567,7311 3566,7310 3565,7308 3564,7306 3564,7305 3563,7301 3562,7298 3562,7294 3562,7290 3562,7286 3562,7176 3303,7176 3306,7568 3562,7568 3562,7521 3562,7518 3562,7514 3562,7510 3563,7506 3564,7502 3564,7500 3565,7498 3566,7496 3567,7495 3568,7493 3569,7491 3571,7488 3573,7485 3576,7482 3579,7479 3582,7476 3585,7474 3586,7473 3588,7472 3590,7471 3592,7470 3593,7469 3595,7468 3598,7467 3602,7465 3606,7464 3610,7463 3614,7462 3618,7462 3622,7461 3626,7462 3629,7462 3633,7463 3637,7464 3641,7465 3644,7467 3648,7468 3652,7470 3654,7471 3655,7472 3657,7473 3659,7474 3662,7476 3665,7479 3667,7482 3670,7485 3672,7488 3674,7491 3675,7493 3675,7495 3677,7498 3678,7502 3679,7506 3680,7510 3680,7514 3681,7518 3681,7521 3681,7628 3681,7633 3680,7637 3680,7640 3679,7644 3678,7648 3677,7652 3675,7656 3674,7659 3672,7662 3670,7665 3667,7668 3665,7671 3662,7674 3659,7676 3655,7678 3652,7680 3648,7682 3644,7684 3641,7685 3637,7686 3633,7687 3629,7687 3626,7687 3622,7687 3246,7687 3242,7687 3238,7687 3235,7687 3231,7686 3227,7685 3223,7684 3220,7682 3216,7680 3213,7678 3209,7676 3207,7674 3204,7671 3201,7668 3199,7665 3197,7662 3195,7659 3193,7656 3191,7652 3189,7648 3188,7644 3187,7641 3186,7637 3186,7633 3186,7629 3183,7116 3183,7113 3183,7109 3184,7105 3185,7101 3186,7098 3187,7094 3188,7091 3190,7087 3192,7084 3195,7080 3197,7077 3200,7074 3203,7071 3206,7069 3209,7067 3213,7064 3220,7062 3224,7061 3228,7059 3232,7059 3235,7058 3239,7058 3243,7057 3375,7057 3375,6874 3297,6874 3290,6874 3284,6874 3278,6873 3272,6872 3266,6870 3261,6868 3255,6866 3250,6864 3245,6860 3240,6856 3235,6851 3231,6847 3226,6842 3223,6838 3219,6833 3216,6828 3213,6822 3210,6817 3208,6811 3206,6805 3205,6799 3204,6793 3203,6787 3203,6781 3203,6774 3204,6768 3205,6762 3206,6756 3208,6750 3210,6745 3213,6739 3216,6734 3220,6728 3224,6723 3228,6719 3232,6714 3236,6710 3241,6706 3246,6703 3252,6700 3254,6698 3257,6696 3259,6695 3262,6694 3267,6692 3273,6690 3279,6689 3285,6688 3291,6688 3298,6688 3375,6688 3375,6308 3375,6304 3375,6300 3376,6296 3376,6293 3377,6289 3379,6285 3380,6281 3382,6278 3384,6274 3386,6271 3389,6268 3392,6265 3394,6262 3397,6260 3400,6258 3404,6256 3408,6254 3411,6252 3415,6251 3419,6250 3423,6249 3427,6249 3431,6249 3435,6249 3439,6249 3442,6249 3446,6249 3450,6250 3453,6251 3457,6252 3460,6254 3464,6256 3467,6258 3471,6260 3474,6262 3477,6265 3480,6268 3482,6271 3488,6278 3491,6285 3492,6289 3493,6293 3494,6296 3494,6300 3495,6304 3495,6308 3495,6690 3590,6690 Z"/>
        </g>
       </g>
       <g class="com.sun.star.drawing.PolyPolygonShape">
        <g id="id24">
         <rect class="BoundingBox" stroke="none" fill="none" x="3725" y="6245" width="572" height="1446"/>
         <path fill="rgb(39,24,8)" stroke="none" d="M 4160,6249 L 4166,6249 4172,6249 4178,6250 4184,6251 4190,6252 4196,6254 4199,6256 4201,6257 4204,6259 4207,6261 4212,6264 4217,6267 4221,6271 4226,6275 4230,6280 4234,6284 4238,6290 4242,6296 4245,6301 4247,6306 4249,6312 4251,6317 4252,6323 4253,6329 4254,6335 4254,6341 4254,6347 4253,6353 4252,6360 4251,6366 4249,6372 4247,6378 4244,6384 4241,6390 4237,6394 4234,6398 4230,6403 4225,6407 4221,6412 4216,6416 4211,6420 4205,6424 4200,6426 4195,6428 4189,6430 4183,6432 4177,6433 4171,6434 4165,6434 4160,6435 4080,6435 4080,6723 4119,6723 4123,6723 4127,6723 4131,6724 4134,6725 4138,6726 4141,6727 4145,6729 4148,6731 4154,6735 4158,6738 4161,6740 4163,6743 4166,6746 4167,6748 4168,6749 4169,6751 4170,6753 4172,6756 4173,6760 4174,6763 4176,6767 4177,6771 4177,6774 4178,6778 4178,6782 4178,6786 4177,6790 4177,6794 4176,6798 4174,6802 4173,6805 4172,6808 4170,6812 4169,6813 4168,6815 4167,6817 4166,6818 4163,6822 4161,6825 4158,6827 4154,6830 4151,6832 4148,6835 4145,6836 4141,6837 4138,6838 4134,6840 4131,6840 4127,6841 4123,6841 4119,6842 4080,6842 4080,7146 4261,7236 4261,7236 4261,7236 4261,7237 4261,7237 4262,7237 4262,7237 4263,7237 4264,7237 4267,7240 4270,7242 4272,7245 4275,7247 4278,7250 4280,7253 4282,7256 4285,7259 4287,7263 4288,7267 4290,7271 4291,7274 4292,7282 4294,7289 4296,7628 4296,7629 4296,7633 4295,7637 4295,7641 4294,7644 4293,7648 4292,7651 4291,7653 4290,7654 4289,7656 4288,7657 4285,7661 4283,7665 4281,7668 4278,7671 4275,7674 4273,7676 4270,7678 4267,7680 4259,7684 4255,7686 4252,7687 4248,7688 4244,7689 4240,7689 4237,7689 3864,7689 3860,7689 3856,7689 3853,7688 3849,7687 3845,7686 3841,7684 3834,7680 3830,7678 3827,7676 3824,7674 3822,7671 3819,7668 3816,7665 3814,7661 3812,7657 3811,7657 3755,7555 3753,7552 3751,7548 3750,7544 3749,7540 3748,7537 3747,7533 3747,7529 3747,7525 3747,7521 3747,7517 3748,7514 3749,7510 3750,7506 3751,7502 3753,7499 3755,7495 3757,7492 3760,7489 3763,7485 3766,7482 3769,7480 3772,7477 3778,7472 3781,7471 3785,7470 3788,7468 3792,7467 3796,7467 3799,7466 3803,7466 3807,7465 3816,7467 3820,7468 3824,7469 3828,7470 3831,7472 3835,7473 3838,7474 3841,7476 3844,7479 3847,7481 3850,7484 3853,7487 3855,7490 3857,7494 3858,7496 3859,7497 3899,7569 3961,7569 3961,6842 3862,6842 3858,6841 3854,6841 3850,6840 3846,6840 3842,6838 3838,6837 3835,6836 3831,6835 3827,6832 3824,6830 3821,6827 3819,6825 3816,6822 3814,6818 3812,6815 3810,6812 3808,6808 3806,6805 3805,6802 3804,6798 3803,6794 3802,6790 3802,6786 3802,6782 3802,6778 3802,6774 3803,6771 3804,6767 3805,6763 3806,6760 3808,6756 3810,6753 3812,6749 3814,6746 3816,6743 3819,6740 3821,6738 3824,6735 3827,6733 3831,6731 3835,6729 3838,6727 3842,6726 3846,6725 3850,6724 3854,6723 3858,6723 3862,6723 3961,6723 3961,6435 3820,6434 3813,6433 3806,6432 3800,6431 3794,6430 3788,6428 3782,6426 3776,6423 3771,6421 3766,6417 3761,6413 3756,6410 3752,6405 3748,6401 3744,6396 3741,6392 3738,6387 3735,6381 3733,6375 3730,6369 3729,6363 3727,6357 3727,6351 3726,6345 3726,6340 3726,6333 3727,6327 3728,6321 3729,6314 3731,6308 3733,6302 3735,6296 3738,6291 3741,6285 3745,6281 3749,6276 3753,6272 3757,6268 3762,6265 3767,6261 3773,6259 3778,6255 3784,6253 3790,6250 3796,6249 3802,6247 3808,6246 3814,6246 3820,6246 4160,6249 Z M 4080,7569 L 4175,7569 4174,7327 4080,7280 4080,7569 Z"/>
        </g>
       </g>
       <g class="com.sun.star.drawing.PolyPolygonShape">
        <g id="id25">
         <rect class="BoundingBox" stroke="none" fill="none" x="15057" y="6154" width="697" height="1523"/>
         <path fill="rgb(39,24,8)" stroke="none" d="M 15408,6994 L 15540,6765 15519,6706 15291,6706 15273,6758 15408,6994 Z M 15663,6735 L 15666,6742 15667,6746 15668,6750 15669,6754 15670,6758 15670,6762 15670,6767 15670,6770 15750,6987 15752,6995 15752,6999 15753,7003 15753,7007 15753,7011 15753,7015 15752,7018 15751,7023 15750,7027 15749,7031 15748,7034 15746,7038 15744,7041 15741,7044 15738,7047 15736,7050 15733,7053 15731,7056 15728,7058 15725,7060 15721,7062 15718,7064 15714,7065 15710,7066 15707,7067 15703,7068 15699,7068 15691,7068 15683,7068 15676,7066 15672,7065 15668,7063 15665,7061 15661,7059 15658,7057 15654,7054 15652,7052 15649,7049 15647,7046 15644,7043 15642,7039 15640,7036 15638,7032 15637,7028 15594,6911 15476,7114 15745,7585 15747,7589 15748,7592 15750,7595 15751,7599 15751,7603 15752,7607 15752,7611 15752,7615 15752,7619 15752,7623 15751,7627 15751,7631 15750,7635 15748,7638 15747,7642 15745,7645 15743,7648 15741,7652 15738,7655 15736,7657 15733,7660 15730,7663 15727,7665 15726,7666 15724,7666 15720,7669 15717,7670 15713,7672 15709,7673 15705,7674 15702,7675 15698,7675 15694,7675 15117,7675 15113,7675 15110,7675 15106,7674 15103,7673 15099,7672 15096,7670 15092,7669 15088,7666 15086,7666 15085,7665 15083,7664 15081,7663 15078,7660 15075,7657 15072,7655 15069,7652 15067,7648 15065,7645 15064,7642 15062,7638 15061,7635 15060,7631 15059,7627 15059,7623 15058,7619 15058,7615 15058,7611 15059,7607 15059,7603 15060,7599 15061,7595 15062,7592 15064,7589 15065,7585 15338,7114 15219,6904 15174,7028 15173,7032 15171,7036 15169,7039 15167,7043 15164,7046 15162,7049 15159,7052 15156,7054 15155,7056 15153,7057 15150,7059 15147,7061 15144,7063 15140,7065 15136,7066 15132,7067 15127,7068 15120,7068 15112,7068 15109,7068 15105,7067 15102,7066 15098,7065 15094,7064 15091,7062 15087,7060 15084,7058 15080,7056 15077,7053 15075,7050 15073,7049 15072,7047 15070,7044 15067,7041 15066,7038 15064,7034 15062,7031 15061,7027 15060,7023 15059,7018 15059,7017 15058,7015 15058,7013 15058,7011 15058,7007 15058,7003 15059,6999 15060,6995 15061,6991 15062,6987 15350,6194 15351,6192 15351,6191 15351,6188 15351,6187 15352,6186 15352,6185 15352,6185 15352,6185 15354,6181 15357,6177 15359,6174 15362,6171 15365,6168 15368,6166 15372,6164 15375,6162 15379,6160 15383,6158 15386,6157 15390,6156 15394,6155 15398,6155 15401,6155 15405,6155 15409,6155 15413,6155 15416,6155 15420,6156 15424,6157 15428,6158 15431,6160 15435,6162 15438,6164 15441,6166 15444,6168 15447,6171 15450,6174 15453,6177 15456,6181 15458,6185 15460,6188 15461,6189 15461,6191 15462,6192 15462,6194 15654,6724 15659,6730 15660,6731 15661,6733 15662,6734 15663,6734 15663,6735 Z M 15408,7233 L 15221,7554 15590,7554 15408,7233 Z M 15405,6391 L 15335,6585 15475,6585 15405,6391 Z"/>
        </g>
       </g>
       <g class="com.sun.star.drawing.PolyPolygonShape">
        <g id="id26">
         <rect class="BoundingBox" stroke="none" fill="none" x="14078" y="6202" width="703" height="1465"/>
         <path fill="rgb(39,24,8)" stroke="none" d="M 14118,7656 L 14117,7656 14115,7655 14113,7654 14112,7653 14109,7650 14106,7647 14103,7644 14101,7641 14099,7637 14097,7633 14095,7630 14093,7627 14092,7624 14090,7620 14090,7616 14089,7612 14088,7608 14088,7603 14088,6696 14088,6692 14089,6688 14090,6684 14090,6681 14092,6677 14093,6673 14095,6670 14097,6667 14098,6665 14099,6663 14100,6661 14101,6660 14102,6658 14103,6657 14106,6654 14109,6651 14112,6649 14115,6647 14118,6646 14122,6643 14125,6641 14129,6639 14132,6638 14136,6637 14140,6636 14144,6636 14148,6636 14218,6636 14218,6533 14139,6533 14135,6532 14132,6532 14128,6532 14124,6531 14120,6530 14117,6529 14113,6528 14109,6526 14106,6523 14103,6521 14101,6518 14098,6516 14095,6512 14093,6509 14088,6503 14087,6499 14085,6496 14084,6492 14083,6488 14082,6485 14081,6481 14081,6477 14081,6475 14081,6474 14081,6470 14082,6466 14082,6462 14083,6458 14084,6454 14085,6450 14087,6447 14088,6444 14091,6440 14093,6437 14095,6433 14098,6431 14101,6428 14103,6425 14106,6423 14109,6421 14117,6418 14121,6417 14124,6416 14128,6415 14133,6414 14137,6414 14141,6414 14367,6415 14367,6263 14367,6259 14368,6255 14368,6251 14369,6248 14370,6244 14371,6240 14374,6233 14377,6229 14379,6226 14381,6222 14384,6220 14387,6217 14390,6214 14393,6212 14396,6210 14404,6207 14408,6206 14411,6205 14415,6204 14419,6203 14423,6203 14427,6203 14431,6203 14435,6203 14438,6204 14442,6205 14446,6206 14450,6207 14457,6210 14460,6212 14463,6214 14466,6217 14468,6220 14471,6222 14474,6226 14476,6229 14478,6233 14481,6240 14484,6248 14485,6251 14486,6255 14487,6259 14487,6261 14487,6263 14487,6415 14713,6417 14717,6417 14721,6417 14724,6418 14728,6419 14732,6420 14736,6422 14743,6425 14747,6427 14750,6429 14753,6432 14756,6434 14758,6437 14761,6440 14766,6446 14769,6453 14770,6457 14771,6461 14772,6465 14773,6469 14773,6473 14773,6478 14773,6481 14773,6485 14772,6489 14771,6493 14770,6496 14768,6500 14766,6504 14764,6508 14762,6510 14760,6513 14758,6516 14755,6519 14752,6521 14750,6524 14746,6526 14743,6529 14736,6531 14732,6532 14728,6534 14724,6534 14721,6535 14717,6535 14713,6536 14645,6536 14645,6636 14706,6636 14710,6636 14714,6636 14718,6637 14722,6638 14726,6639 14729,6641 14733,6643 14736,6646 14739,6647 14742,6649 14745,6651 14748,6654 14751,6657 14752,6658 14753,6660 14754,6661 14755,6663 14756,6665 14757,6667 14759,6670 14761,6673 14763,6677 14764,6681 14765,6684 14766,6688 14766,6692 14766,6696 14766,7603 14766,7608 14766,7612 14765,7616 14764,7620 14763,7624 14761,7627 14759,7630 14757,7633 14756,7635 14755,7637 14753,7641 14751,7644 14748,7647 14745,7650 14742,7653 14739,7655 14738,7656 14736,7656 14733,7659 14729,7660 14726,7662 14722,7663 14718,7664 14714,7665 14710,7665 14706,7665 14148,7665 14144,7665 14140,7665 14136,7664 14132,7663 14129,7662 14125,7660 14122,7659 14118,7656 Z M 14525,6636 L 14525,6536 14337,6535 14337,6636 14525,6636 Z M 14646,7544 L 14646,7210 14208,7209 14208,7544 14646,7544 Z M 14646,6757 L 14208,6757 14208,7089 14646,7092 14646,6757 Z M 14198,6306 L 14198,6309 14198,6312 14197,6316 14197,6320 14196,6323 14194,6327 14193,6330 14191,6334 14186,6340 14183,6344 14180,6347 14178,6349 14175,6352 14172,6354 14168,6357 14165,6358 14161,6359 14157,6360 14154,6362 14150,6362 14146,6363 14142,6363 14138,6364 14134,6363 14131,6363 14127,6362 14123,6362 14119,6360 14116,6359 14108,6357 14105,6354 14101,6352 14098,6349 14095,6347 14093,6344 14090,6340 14088,6337 14085,6334 14084,6330 14082,6327 14081,6323 14080,6320 14079,6316 14079,6312 14078,6309 14078,6306 14078,6267 14078,6263 14079,6259 14079,6255 14080,6252 14081,6248 14082,6244 14085,6237 14088,6233 14090,6230 14093,6226 14095,6224 14098,6221 14101,6218 14105,6216 14108,6214 14112,6212 14116,6210 14119,6209 14123,6208 14127,6207 14131,6207 14134,6207 14138,6207 14142,6207 14146,6207 14150,6207 14154,6208 14157,6209 14161,6210 14165,6212 14168,6214 14172,6216 14175,6218 14178,6221 14180,6224 14183,6226 14186,6230 14191,6237 14193,6240 14194,6244 14196,6248 14197,6252 14197,6255 14198,6259 14198,6263 14198,6267 14198,6306 Z M 14779,6306 L 14779,6310 14779,6314 14778,6317 14777,6321 14776,6325 14774,6328 14772,6331 14770,6335 14769,6336 14768,6338 14767,6340 14766,6342 14764,6345 14761,6348 14758,6351 14755,6353 14752,6356 14749,6358 14746,6359 14742,6360 14739,6361 14735,6363 14731,6363 14727,6364 14723,6364 14719,6365 14715,6364 14711,6364 14707,6363 14703,6363 14699,6361 14696,6360 14692,6359 14689,6358 14686,6356 14683,6353 14680,6351 14677,6348 14674,6345 14672,6342 14670,6338 14669,6336 14668,6335 14666,6331 14664,6328 14662,6325 14661,6321 14660,6317 14659,6314 14658,6310 14658,6306 14658,6269 14658,6264 14659,6260 14660,6256 14661,6252 14662,6248 14664,6244 14666,6240 14668,6237 14669,6235 14670,6234 14672,6231 14674,6228 14677,6225 14680,6223 14683,6220 14686,6218 14689,6216 14691,6214 14692,6214 14694,6213 14696,6212 14697,6211 14699,6211 14703,6210 14707,6209 14711,6209 14715,6209 14719,6209 14723,6209 14727,6209 14731,6209 14735,6210 14739,6211 14742,6212 14744,6213 14746,6214 14748,6214 14749,6216 14755,6220 14758,6223 14761,6225 14764,6228 14766,6231 14768,6234 14769,6235 14770,6237 14772,6240 14774,6244 14776,6248 14777,6252 14778,6256 14779,6260 14779,6264 14779,6269 14779,6306 Z"/>
        </g>
       </g>
       <g class="com.sun.star.drawing.PolyPolygonShape">
        <g id="id27">
         <rect class="BoundingBox" stroke="none" fill="none" x="4727" y="4067" width="8496" height="6024"/>
         <path fill="rgb(39,24,8)" stroke="none" d="M 8630,9492 L 8647,9504 8666,9516 8709,9539 8757,9560 8809,9578 8861,9594 8912,9606 8961,9613 8984,9614 9005,9614 9059,9565 9106,9513 9148,9461 9186,9408 9221,9354 9252,9300 9310,9190 9258,9213 9182,9247 8990,9337 8788,9428 8700,9466 8630,9492 Z M 6553,10074 L 6384,10090 6216,10090 6054,10078 5902,10056 5765,10028 5647,9995 5554,9962 5517,9945 5489,9929 5404,9865 5322,9790 5282,9748 5244,9703 5207,9656 5172,9606 5140,9552 5111,9495 5084,9435 5061,9371 5042,9304 5026,9233 5015,9158 5008,9079 5010,8961 5021,8850 5040,8746 5067,8649 5100,8559 5139,8474 5183,8395 5230,8321 5333,8187 5441,8068 5643,7860 5650,7853 5658,7847 5667,7842 5675,7839 5684,7836 5693,7835 5701,7835 5709,7836 5717,7838 5725,7841 5732,7844 5738,7848 5744,7853 5749,7858 5753,7863 5754,7866 5756,7869 5761,7894 5766,7925 5776,7998 5794,8150 5795,8169 5796,8191 5794,8213 5793,8225 5791,8236 5788,8247 5784,8257 5780,8267 5775,8277 5768,8285 5761,8292 5753,8299 5748,8301 5744,8303 5676,8351 5599,8415 5518,8492 5479,8536 5440,8584 5404,8635 5371,8689 5342,8746 5317,8806 5297,8869 5283,8936 5276,9005 5277,9076 5289,9029 5305,8981 5326,8932 5350,8883 5377,8835 5408,8788 5475,8697 5550,8615 5589,8578 5629,8544 5669,8514 5708,8488 5747,8466 5786,8449 5787,8448 5789,8447 5794,8445 5800,8443 5807,8441 5824,8438 5843,8436 5853,8436 5862,8437 5872,8438 5880,8440 5888,8442 5891,8444 5894,8446 5897,8448 5900,8450 5902,8453 5904,8455 5923,8490 5937,8518 5946,8541 5953,8560 5961,8593 5965,8609 5971,8625 5974,8642 5977,8659 5978,8669 5978,8678 5978,8687 5977,8696 5975,8704 5972,8713 5969,8721 5964,8729 5959,8736 5952,8743 5944,8749 5935,8754 5900,8774 5862,8799 5823,8829 5782,8863 5741,8902 5700,8946 5660,8993 5623,9045 5589,9102 5558,9162 5533,9226 5513,9294 5499,9366 5493,9442 5495,9521 5507,9603 5520,9545 5537,9487 5559,9429 5584,9371 5643,9260 5709,9157 5779,9066 5847,8990 5879,8959 5910,8933 5937,8913 5962,8899 5968,8896 5975,8893 5983,8890 5990,8887 5998,8885 6007,8884 6015,8883 6023,8883 6031,8884 6039,8885 6046,8887 6053,8890 6060,8894 6065,8899 6068,8902 6070,8905 6073,8908 6075,8911 6138,8986 6166,9021 6175,9034 6179,9039 6181,9043 6184,9052 6186,9061 6188,9070 6189,9078 6190,9087 6190,9096 6190,9104 6188,9112 6186,9120 6183,9127 6178,9135 6173,9141 6167,9148 6160,9154 6151,9159 6142,9163 6093,9179 6045,9201 6000,9229 5958,9261 5918,9297 5882,9337 5850,9379 5822,9423 5799,9469 5782,9515 5769,9561 5764,9606 5764,9650 5767,9671 5772,9691 5778,9711 5787,9730 5797,9748 5810,9765 5843,9794 5880,9819 5921,9840 5964,9858 6060,9884 6166,9899 6280,9903 6401,9897 6657,9863 6920,9806 7177,9737 7618,9600 8532,9285 9312,8942 9967,8589 10505,8240 10936,7910 11268,7616 11510,7374 11671,7197 11948,6908 12239,6565 12517,6194 12755,5824 12850,5647 12926,5481 12978,5328 12994,5258 13003,5192 13005,5132 12998,5077 12983,5028 12959,4986 12926,4950 12884,4922 12831,4901 12767,4889 12606,4912 12552,4922 12511,4933 12493,4939 12477,4946 12462,4954 12447,4962 12416,4983 12378,5009 12397,5024 12415,5037 12433,5048 12450,5057 12485,5073 12520,5087 12555,5101 12593,5120 12613,5131 12634,5144 12655,5160 12677,5178 12682,5187 12687,5197 12690,5207 12692,5217 12694,5226 12694,5236 12693,5245 12690,5253 12689,5257 12687,5261 12684,5265 12681,5269 12678,5272 12675,5276 12667,5282 12657,5287 12645,5292 12632,5295 12616,5298 12401,5315 12094,5334 11568,5366 11547,5367 11527,5368 11510,5367 11495,5364 11482,5360 11476,5358 11471,5355 11466,5352 11461,5348 11458,5344 11454,5339 11452,5335 11450,5329 11448,5324 11447,5318 11446,5311 11446,5304 11447,5289 11451,5272 11456,5253 11464,5233 11473,5211 11520,5135 11588,5036 11758,4797 11927,4555 11994,4453 12039,4374 12051,4356 12062,4343 12068,4337 12074,4333 12079,4330 12085,4327 12091,4325 12097,4324 12102,4323 12108,4323 12113,4324 12119,4325 12124,4327 12129,4329 12139,4335 12148,4342 12156,4350 12163,4359 12169,4368 12174,4377 12177,4386 12179,4394 12187,4442 12191,4492 12194,4594 12197,4645 12201,4695 12209,4742 12215,4765 12222,4788 12337,4741 12471,4698 12543,4681 12617,4668 12691,4661 12765,4659 12838,4665 12908,4680 12974,4703 13005,4719 13035,4737 13064,4758 13091,4782 13116,4809 13140,4839 13161,4873 13181,4910 13212,4996 13221,5060 13222,5128 13215,5201 13202,5277 13157,5439 13089,5612 13002,5793 12898,5978 12656,6352 12387,6711 12117,7033 11873,7295 11768,7397 11678,7474 11666,7544 11643,7629 11570,7839 11462,8089 11322,8364 11152,8647 10956,8922 10849,9052 10736,9174 10618,9286 10495,9386 10261,9543 10138,9613 10010,9676 9877,9731 9740,9779 9598,9817 9452,9847 9301,9866 9145,9875 8986,9873 8821,9858 8652,9831 8478,9791 8300,9737 8118,9668 7822,9766 7403,9890 6949,10005 6738,10047 6553,10074 Z M 7663,9408 L 7482,9316 7302,9201 7131,9068 7052,8996 6978,8922 6911,8845 6852,8767 6802,8688 6762,8608 6733,8529 6717,8450 6714,8411 6714,8373 6719,8335 6727,8297 6733,8318 6741,8340 6766,8391 6800,8448 6842,8510 6945,8645 7065,8783 7192,8912 7316,9020 7375,9063 7429,9096 7478,9118 7499,9124 7520,9127 7589,9035 7647,8946 7694,8859 7728,8773 7739,8730 7747,8688 7751,8645 7751,8602 7747,8559 7738,8516 7725,8472 7708,8428 7658,8338 7588,8244 7496,8146 7381,8044 7242,7936 7078,7822 6670,7572 6894,7208 6962,7110 7035,7015 7114,6925 7201,6845 7295,6775 7398,6720 7452,6699 7509,6683 7569,6671 7630,6665 7695,6664 7762,6670 7832,6682 7904,6700 8058,6759 8224,6850 8458,6960 8672,7038 8867,7086 9045,7109 9205,7109 9349,7090 9478,7056 9593,7011 9694,6957 9783,6898 9860,6839 9927,6781 10032,6688 10054,6672 10073,6660 10090,6651 10099,6649 10106,6648 10106,6678 10104,6709 10099,6741 10093,6774 10084,6808 10074,6842 10046,6913 10010,6984 9964,7056 9910,7128 9845,7197 9919,7197 9989,7185 10055,7160 10118,7125 10176,7079 10231,7024 10281,6961 10327,6889 10405,6725 10463,6539 10501,6337 10517,6124 10510,5907 10478,5692 10421,5485 10337,5292 10285,5202 10226,5119 10159,5042 10085,4972 10003,4911 9913,4858 9816,4815 9710,4783 9708,4785 9705,4788 9698,4800 9681,4840 9633,4979 9560,5174 9454,5402 9388,5521 9311,5639 9224,5754 9124,5861 9012,5959 8886,6044 8746,6113 8592,6164 8716,6085 8827,6005 8925,5924 9012,5842 9087,5759 9153,5675 9210,5592 9258,5507 9300,5423 9336,5339 9394,5173 9478,4851 9424,4854 9372,4863 9322,4878 9274,4898 9228,4922 9183,4950 9097,5013 8933,5156 8850,5224 8808,5256 8765,5285 8970,4998 9024,4926 9082,4855 9146,4785 9218,4716 9189,4712 9159,4710 9096,4715 9031,4730 8964,4752 8897,4780 8830,4813 8699,4887 8480,5031 8404,5077 8389,5084 8377,5089 8367,5092 8363,5092 8360,5092 8358,5090 8358,5088 8357,5086 8357,5083 8358,5076 8360,5068 8367,5049 8379,5024 8395,4997 8415,4966 8466,4898 8530,4827 8604,4757 8644,4725 8686,4695 8730,4669 8775,4647 8754,4638 8733,4632 8712,4628 8690,4626 8669,4626 8648,4628 8605,4637 8561,4653 8518,4674 8474,4699 8430,4727 8254,4857 8166,4917 8122,4944 8079,4966 8076,4964 8075,4962 8073,4959 8072,4957 8071,4951 8070,4945 8071,4939 8072,4931 8078,4915 8088,4896 8100,4876 8130,4832 8201,4736 8235,4689 8263,4647 8217,4646 8167,4650 8113,4657 8055,4667 7931,4700 7797,4747 7657,4811 7513,4891 7369,4987 7229,5102 7409,5080 7575,5077 7726,5089 7864,5116 7987,5157 8098,5208 8196,5270 8281,5340 8355,5418 8418,5500 8469,5586 8511,5675 8542,5764 8564,5852 8577,5938 8582,6020 8548,5895 8500,5771 8439,5652 8365,5540 8277,5437 8176,5346 8062,5271 8000,5240 7935,5213 7866,5192 7795,5176 7719,5166 7641,5162 7475,5173 7296,5213 7104,5284 6900,5389 6682,5530 6453,5711 6797,5257 7138,4886 7474,4594 7802,4372 8123,4215 8435,4116 8736,4069 9025,4067 9302,4103 9563,4172 9810,4267 10039,4380 10250,4507 10442,4639 10762,4898 10869,4996 10968,5099 11059,5205 11144,5315 11222,5429 11293,5545 11417,5785 11516,6034 11592,6290 11647,6549 11681,6811 11617,6912 11537,7019 11336,7251 11085,7497 10792,7750 10465,8003 10111,8248 9738,8478 9353,8683 9273,8495 9225,8395 9171,8295 9111,8196 9043,8101 8966,8011 8924,7970 8881,7930 8876,8111 8855,8287 8821,8456 8778,8613 8726,8754 8670,8875 8640,8927 8611,8972 8582,9010 8553,9040 8423,9113 8297,9176 8176,9231 8060,9277 7847,9352 7663,9408 Z M 6603,7387 L 6492,7607 6288,7420 6018,7138 5713,6787 5403,6395 5120,5988 4998,5787 4894,5593 4812,5409 4756,5238 4738,5158 4729,5083 4728,5013 4736,4949 4751,4904 4768,4863 4788,4826 4810,4793 4834,4762 4860,4735 4888,4711 4918,4690 4949,4672 4981,4657 5050,4634 5123,4620 5198,4614 5274,4616 5351,4623 5428,4637 5502,4654 5640,4697 5756,4744 5763,4721 5768,4698 5776,4650 5780,4600 5783,4550 5786,4447 5790,4398 5798,4350 5798,4346 5800,4342 5803,4333 5808,4324 5814,4315 5821,4306 5829,4298 5838,4291 5848,4285 5853,4283 5859,4281 5864,4280 5869,4279 5875,4279 5881,4280 5886,4281 5892,4283 5898,4286 5904,4289 5909,4293 5915,4299 5927,4312 5938,4330 5983,4409 6050,4511 6219,4753 6389,4992 6457,5091 6505,5167 6514,5189 6522,5209 6527,5228 6531,5245 6532,5260 6532,5267 6531,5274 6530,5280 6528,5285 6526,5291 6523,5295 6520,5300 6516,5304 6512,5308 6507,5311 6501,5314 6496,5316 6482,5320 6467,5323 6450,5324 6430,5323 6409,5322 5883,5290 5576,5271 5361,5254 5345,5251 5332,5248 5320,5243 5311,5238 5302,5232 5299,5228 5296,5225 5293,5221 5291,5217 5289,5213 5287,5209 5285,5201 5284,5192 5284,5182 5285,5173 5287,5163 5291,5153 5295,5143 5300,5134 5322,5116 5344,5100 5364,5087 5384,5076 5422,5057 5458,5043 5493,5029 5527,5013 5544,5004 5562,4993 5580,4980 5599,4965 5529,4913 5498,4892 5481,4883 5463,4874 5443,4865 5420,4857 5366,4842 5295,4828 5203,4814 5138,4831 5087,4857 5065,4873 5047,4892 5031,4912 5018,4934 5000,4985 4993,5042 4995,5107 5006,5177 5054,5334 5131,5509 5235,5698 5360,5898 5656,6312 5985,6720 6312,7089 6603,7387 Z M 11426,10053 L 11252,10030 11070,9997 10706,9912 10377,9818 10122,9734 10253,9659 10318,9621 10379,9583 10856,9720 11110,9785 11363,9836 11485,9854 11604,9864 11717,9867 11824,9861 11923,9844 12014,9816 12055,9797 12094,9775 12130,9750 12163,9721 12176,9704 12186,9686 12195,9668 12202,9648 12206,9628 12209,9608 12210,9565 12205,9522 12193,9478 12176,9434 12154,9390 12126,9348 12095,9308 12059,9271 12020,9236 11978,9205 11933,9179 11886,9157 11837,9141 11828,9137 11819,9132 11812,9126 11806,9120 11800,9113 11796,9106 11793,9098 11790,9091 11789,9082 11788,9074 11788,9065 11789,9057 11790,9048 11792,9040 11794,9031 11797,9022 11800,9018 11803,9013 11813,9000 11841,8965 11904,8889 11906,8886 11909,8883 11911,8880 11914,8877 11919,8873 11926,8869 11933,8866 11940,8864 11948,8863 11956,8862 11964,8862 11972,8863 11981,8864 11989,8866 11996,8869 12004,8872 12011,8875 12017,8878 12042,8892 12069,8912 12100,8938 12132,8969 12200,9045 12270,9136 12336,9239 12395,9350 12420,9407 12442,9465 12459,9524 12472,9581 12484,9499 12486,9420 12480,9345 12466,9273 12446,9205 12421,9140 12390,9080 12356,9024 12319,8972 12279,8924 12238,8881 12197,8842 12156,8807 12117,8778 12079,8753 12044,8733 12035,8728 12027,8722 12020,8715 12014,8708 12010,8700 12006,8692 12004,8683 12002,8674 12001,8665 12001,8656 12001,8647 12002,8638 12005,8620 12008,8603 12014,8587 12018,8571 12026,8538 12033,8519 12042,8496 12056,8468 12075,8434 12077,8432 12079,8429 12082,8427 12084,8424 12088,8423 12091,8421 12099,8418 12107,8416 12116,8415 12126,8414 12135,8415 12145,8415 12155,8416 12163,8418 12172,8419 12179,8421 12185,8424 12190,8426 12192,8427 12193,8428 12232,8445 12271,8467 12310,8493 12350,8523 12390,8557 12429,8594 12504,8676 12571,8767 12601,8814 12629,8862 12653,8911 12673,8960 12689,9008 12701,9055 12702,8983 12695,8914 12681,8848 12662,8785 12637,8724 12608,8667 12574,8613 12538,8562 12500,8514 12460,8470 12380,8393 12302,8329 12234,8281 12230,8279 12225,8277 12221,8274 12217,8271 12210,8264 12204,8255 12199,8246 12194,8236 12191,8226 12188,8215 12186,8204 12184,8192 12183,8170 12184,8148 12185,8129 12203,7976 12213,7903 12218,7872 12223,7847 12225,7844 12226,7842 12230,7836 12235,7831 12241,7827 12247,7823 12254,7819 12262,7817 12270,7815 12278,7814 12286,7814 12295,7815 12303,7818 12312,7821 12320,7826 12328,7832 12335,7839 12538,8046 12646,8166 12749,8300 12796,8374 12840,8453 12878,8537 12912,8628 12938,8725 12957,8828 12968,8939 12970,9057 12963,9136 12952,9211 12936,9282 12917,9349 12894,9413 12867,9473 12838,9530 12806,9584 12771,9634 12735,9682 12697,9726 12657,9768 12574,9843 12489,9907 12461,9923 12424,9940 12331,9974 12213,10006 12076,10035 11925,10056 11763,10068 11595,10068 11426,10053 Z"/>
        </g>
       </g>
       <g class="com.sun.star.drawing.PolyPolygonShape">
        <g id="id28">
         <rect class="BoundingBox" stroke="none" fill="none" x="13542" y="7907" width="2254" height="302"/>
         <path fill="rgb(39,24,8)" stroke="none" d="M 14668,8207 L 13542,8207 13542,7907 15794,7907 15794,8207 14668,8207 Z"/>
        </g>
       </g>
       <g class="com.sun.star.drawing.PolyPolygonShape">
        <g id="id29">
         <rect class="BoundingBox" stroke="none" fill="none" x="2255" y="5677" width="1867" height="303"/>
         <path fill="rgb(39,24,8)" stroke="none" d="M 3189,5979 L 2256,5979 2256,5678 4121,5678 4121,5979 3189,5979 Z"/>
        </g>
       </g>
       <g class="com.sun.star.drawing.PolyPolygonShape">
        <g id="id30">
         <rect class="BoundingBox" stroke="none" fill="none" x="625" y="627" width="16630" height="12495"/>
         <path fill="rgb(39,24,8)" stroke="none" d="M 2783,4821 L 1927,5658 1534,6040 1291,6271 1282,6279 1273,6288 1264,6298 1256,6309 1238,6332 1221,6357 1202,6389 1184,6423 1167,6461 1159,6480 1152,6501 1137,6543 1123,6588 1111,6634 1101,6682 1093,6731 1087,6780 1083,6831 1082,6882 1083,6930 1086,6977 1092,7024 1100,7071 1110,7119 1123,7165 1139,7212 1157,7257 1178,7302 1201,7346 1228,7389 1242,7410 1257,7430 1291,7471 1328,7511 1368,7550 1411,7586 1411,7587 1411,7587 1412,7587 1412,7588 1412,7588 1412,7588 1413,7588 1414,7589 1414,7589 1414,7589 1415,7589 1415,7589 3276,9041 4825,9041 4823,9141 4831,9242 4848,9344 4876,9445 4915,9545 4963,9642 5023,9736 5093,9825 5175,9909 5268,9986 5373,10057 5489,10119 5617,10171 5757,10214 5910,10245 6075,10264 6441,10541 6811,10783 7182,10988 7554,11156 7928,11288 8303,11382 8678,11439 9054,11459 9430,11440 9805,11382 10180,11286 10554,11151 10927,10976 11298,10762 11667,10507 12034,10212 12190,10189 12329,10156 12453,10112 12562,10060 12658,9999 12743,9931 12816,9856 12878,9776 12932,9690 12977,9600 13016,9507 13048,9410 13099,9213 13137,9014 14774,9014 16295,7857 16354,7802 16410,7745 16462,7686 16510,7625 16555,7562 16597,7499 16635,7434 16669,7367 16699,7302 16725,7234 16747,7167 16765,7098 16779,7031 16788,6963 16794,6896 16796,6829 16795,6788 16793,6747 16789,6706 16784,6665 16777,6624 16769,6584 16759,6544 16748,6505 16734,6465 16719,6425 16703,6386 16684,6348 16665,6310 16643,6272 16620,6235 16595,6199 16595,6197 16594,6196 16594,6196 16593,6195 16593,6194 16592,6193 16591,6193 16579,6177 16559,6157 16499,6100 16309,5936 15764,5488 15217,5043 15025,4881 14963,4826 14929,4792 14928,4789 14926,4786 14921,4781 13325,4784 13289,4718 13249,4662 13207,4615 13163,4577 13116,4547 13069,4524 13020,4507 12970,4495 12920,4489 12870,4487 12820,4488 12770,4493 12674,4507 12583,4524 12219,4054 11821,3648 11393,3306 10940,3028 10468,2812 9980,2659 9483,2568 8981,2539 8480,2571 7983,2664 7495,2816 7023,3029 6570,3301 6142,3632 5744,4021 5380,4469 5330,4450 5277,4436 5222,4428 5166,4426 5108,4428 5050,4436 4993,4449 4937,4467 4882,4490 4830,4518 4781,4551 4737,4589 4696,4632 4661,4679 4632,4732 4610,4789 2812,4788 2798,4804 2795,4809 2791,4813 2787,4817 2783,4821 Z M 11333,12119 L 11014,12327 10708,12516 10413,12684 10125,12828 9977,12893 9830,12951 9683,13000 9535,13042 9384,13076 9232,13100 9155,13109 9078,13115 9001,13119 8923,13120 8797,13117 8670,13107 8541,13090 8410,13067 8276,13035 8140,12997 8002,12950 7860,12895 7720,12835 7578,12768 7432,12692 7282,12608 6970,12414 6640,12185 1126,7942 1092,7915 1060,7887 1029,7858 1000,7829 944,7769 894,7706 871,7675 848,7642 807,7576 771,7509 739,7440 711,7372 688,7302 668,7232 653,7162 641,7092 632,7022 628,6952 626,6882 628,6809 633,6737 641,6666 653,6597 667,6529 685,6463 704,6399 726,6338 750,6276 777,6218 806,6164 837,6113 854,6085 872,6060 890,6035 909,6012 928,5990 947,5969 966,5949 986,5931 1200,5729 1543,5396 2336,4620 2286,4519 2242,4417 2203,4314 2170,4211 2150,4136 2133,4062 2119,3987 2107,3912 2098,3837 2092,3761 2088,3686 2087,3610 2090,3494 2098,3379 2113,3265 2133,3151 2158,3037 2189,2925 2225,2815 2266,2706 2312,2599 2362,2495 2418,2393 2477,2294 2541,2197 2609,2103 2681,2012 2757,1925 2837,1840 2922,1759 3010,1683 3102,1611 3196,1543 3294,1480 3395,1422 3499,1370 3607,1321 3718,1279 3831,1242 3946,1212 4064,1188 4185,1170 4307,1159 4432,1156 4546,1159 4661,1168 4778,1184 4896,1206 5014,1235 5134,1271 5255,1313 5377,1364 5476,1410 5575,1461 5674,1518 5774,1580 5874,1647 5974,1719 6074,1797 6174,1881 6350,1726 6525,1584 6698,1452 6870,1332 7040,1221 7208,1122 7375,1032 7540,952 7724,874 7907,807 8088,751 8267,706 8444,671 8620,647 8793,632 8963,628 9070,630 9175,635 9279,644 9382,656 9484,671 9585,689 9784,736 9978,794 10168,862 10354,941 10535,1029 10686,1111 10833,1198 10977,1291 11119,1389 11391,1597 11651,1821 11757,1734 11863,1654 11968,1580 12073,1511 12178,1447 12283,1389 12388,1337 12492,1290 12619,1238 12744,1195 12869,1158 12993,1129 13115,1106 13236,1090 13355,1081 13473,1078 13593,1081 13711,1090 13827,1106 13940,1128 14051,1155 14160,1188 14266,1226 14369,1270 14469,1318 14567,1370 14661,1428 14753,1490 14841,1557 14926,1627 15007,1702 15085,1781 15159,1862 15229,1947 15295,2035 15356,2127 15414,2221 15467,2318 15515,2418 15559,2520 15599,2624 15633,2731 15663,2839 15687,2949 15706,3061 15720,3174 15728,3288 15731,3403 15730,3488 15725,3574 15717,3661 15706,3747 15691,3834 15673,3921 15651,4009 15626,4096 15581,4229 15528,4361 15466,4492 15395,4623 15441,4663 15489,4704 15594,4786 16294,5341 16729,5704 16885,5846 16938,5899 16970,5938 17005,5989 17037,6041 17067,6094 17094,6147 17120,6202 17143,6256 17164,6312 17182,6368 17199,6424 17213,6481 17226,6538 17236,6596 17243,6654 17249,6712 17252,6770 17253,6829 17250,6922 17242,7016 17228,7110 17209,7203 17184,7295 17154,7386 17119,7476 17079,7565 17035,7651 16986,7736 16932,7819 16874,7901 16811,7980 16743,8057 16671,8132 16594,8203 16591,8206 16588,8207 16585,8209 16582,8211 11347,12109 11333,12119 Z"/>
        </g>
       </g>
      </g>
     </g>
    </g>
   </g>
  </g>
 </g>
</svg>